<?xml version="1.0" encoding="UTF-8" standalone="no"?>
<svg id="svg23257" xmlns:rdf="http://www.w3.org/1999/02/22-rdf-syntax-ns#" xmlns="http://www.w3.org/2000/svg" height="8mm" viewBox="0 0 28.346456 28.346456" width="8mm" version="1.1" xmlns:cc="http://creativecommons.org/ns#" xmlns:dc="http://purl.org/dc/elements/1.1/">
 <path id="path6-0" d="m15.978 1.9603c-0.1309-0.0001569-0.26128 0.00267-0.39255 0.00808l-0.4525 1.6869c0.19012 0.15089 0.38076 0.29035 0.5725 0.42006l-0.81095 3.0298c-1.2057 0.24862-2.2169 0.95037-2.5125 2.0519-0.1227 0.45717-0.09955 0.92674 0.02917 1.3738-2.8062 0.88808-5.1886 3.3369-6.076 6.6453-0.49942 1.8617-0.4551 3.7218 0.027522 5.385l0.045472 0.15748 0.13132 0.09732c3.6739 2.7229 7.8016 4.1646 12.504 3.3381l0.14601-0.02438 0.10707-0.10381c1.2439-1.1979 2.2174-2.793 2.7152-4.6486 0.89223-3.327 0.05315-6.6593-1.9578-8.8302 0.32596-0.31194 0.58262-0.69266 0.70403-1.145 0.2929-1.0924-0.23071-2.1862-1.1322-2.9975l0.81427-3.0333c0.27286-0.012132 0.55142-0.035555 0.83534-0.069707l0.45249-1.6884c-1.858-1.0524-3.784-1.6504-5.747-1.6524zm0.59534 2.6276c0.91082 0.4621 1.8552 0.70808 2.866 0.77373l-0.8272 3.0834-0.08274 0.30987 0.25148 0.19776c0.85294 0.66878 1.2305 1.4864 1.0396 2.1979-0.10054 0.3749-0.35918 0.6924-0.75261 0.95052l-0.5141 0.33893 0.44928 0.42177c1.3649 1.2805 2.2318 3.1629 2.3731 5.2488h-1.6966l-0.42338 1.5798-0.11024 0.40714-0.41523-0.07298c-0.368-0.0654-0.65586-0.02066-0.89208 0.10868-0.23632 0.12924-0.43936 0.35201-0.59378 0.72822l-0.154 0.37474-0.39094-0.10381-5.2147-1.3981-0.41201-0.11029 0.07942-0.4185c0.07656-0.40589-0.05762-0.80674-0.33084-1.0948h-3.7063c0.04324-0.22734 0.094463-0.45484 0.15571-0.68295 0.8553-3.191 3.2386-5.459 5.8956-6.102l0.598-0.145-0.28-0.548c-0.213-0.415-0.271-0.8376-0.167-1.2246 0.193-0.7204 0.944-1.2571 2.03-1.403l0.32118-0.043864 0.08268-0.31142 0.82081-3.0623zm-3.2295 9.6899c-0.4047 0.68337-1.1538 1.1076-1.9497 1.0997l-0.4525 1.682c0.68809 0.38253 1.1372 1.1007 1.15 1.8863l4.4832 1.2003c0.20954-0.35502 0.4879-0.63603 0.82237-0.81904 0.32346-0.17715 0.68965-0.25501 1.0705-0.24821l0.45416-1.695c-0.671-0.397-1.092-1.127-1.1-1.906l-4.4783-1.2003z"/>
</svg>
