<?xml version="1.0" encoding="UTF-8" standalone="no"?>
<svg id="svg23257" xmlns:rdf="http://www.w3.org/1999/02/22-rdf-syntax-ns#" xmlns="http://www.w3.org/2000/svg" height="8mm" viewBox="0 0 28.346456 28.346456" width="8mm" version="1.1" xmlns:cc="http://creativecommons.org/ns#" xmlns:dc="http://purl.org/dc/elements/1.1/">
 <path id="path6" d="m12.958 1.5648v2.9661h-3.3825v2.4312h3.3825v2.9898c0.39761-0.05433 0.80335-0.08298 1.2156-0.08298s0.81799 0.02864 1.2156 0.08298v-2.9898h3.3825v-2.4312h-3.3825v-2.9661h-2.4312zm1.2156 2.901c0.72407 0 1.3213 0.59723 1.3213 1.3213s-0.59723 1.3213-1.3213 1.3213-1.3213-0.59723-1.3213-1.3213 0.59723-1.3213 1.3213-1.3213zm0 0.95134c-0.20998 0-0.36996 0.15998-0.36996 0.36996s0.15998 0.36996 0.36996 0.36996 0.36996-0.15998 0.36996-0.36996-0.15998-0.36996-0.36996-0.36996zm-0.39877 5.4129c-0.2762 0.01354-0.54876 0.04112-0.81683 0.08193v0.66255c0.15063-0.35146 0.45009-0.62656 0.81683-0.74447zm0.79754 0c0.36679 0.11786 0.6662 0.39306 0.81683 0.74447v-0.6625c-0.26807-0.04085-0.54068-0.06844-0.81683-0.08193zm-2.5657 0.2872c-2.9616 0.83136-5.2214 3.3253-5.7133 6.4152h5.7133v-6.4152zm4.3339 0v6.4152h5.7133c-0.49189-3.0897-2.7517-5.5838-5.7133-6.4152zm-2.1669 0.60146c-0.20998 0-0.36996 0.16004-0.36996 0.36996 0 0.20998 0.15998 0.36996 0.36996 0.36996s0.36996-0.15998 0.36996-0.36996c0-0.20993-0.15998-0.36996-0.36996-0.36996zm-1.2156 0.88421v1.5085c0.155-0.36 0.467-0.641 0.849-0.753-0.382-0.112-0.694-0.392-0.849-0.754zm2.4312 0c-0.15507 0.36162-0.46774 0.64242-0.84912 0.7542 0.38143 0.11184 0.69406 0.39269 0.84912 0.7543v-1.5085zm-1.2156 1.6527c-0.20998 0-0.36996 0.16004-0.36996 0.36996 0 0.20998 0.15998 0.36996 0.36996 0.36996s0.36996-0.15998 0.36996-0.36996c0-0.20993-0.15998-0.36996-0.36996-0.36996zm-1.2156 0.88422v1.5085c0.156-0.361 0.468-0.642 0.85-0.754-0.382-0.112-0.694-0.392-0.849-0.754zm2.4312 0c-0.15507 0.36161-0.46774 0.64242-0.84912 0.7542 0.38143 0.11184 0.69406 0.39269 0.84912 0.7543v-1.5085zm-1.2156 1.6527c-0.20998 0-0.36996 0.16004-0.36996 0.36996 0 0.20998 0.15998 0.36996 0.36996 0.36996s0.36996-0.15998 0.36996-0.36996c0-0.20993-0.15998-0.36996-0.36996-0.36996zm-1.2156 0.88422v0.80705h-0.80705c0.36161 0.15507 0.64242 0.46774 0.7542 0.84917 0.12658-0.43196 0.47007-0.77534 0.90197-0.90197-0.38143-0.11178-0.69405-0.39259-0.84912-0.7542zm2.4312 0c-0.15507 0.36161-0.46774 0.64242-0.84912 0.7542 0.43191 0.12663 0.77534 0.47007 0.90197 0.90202 0.11178-0.38143 0.39258-0.6941 0.7542-0.84912h-0.80705v-0.80705zm-8.312 0.80705c0.36161 0.15507 0.64242 0.46774 0.7542 0.84917 0.11178-0.38143 0.39259-0.6941 0.7542-0.84912h-1.5084zm2.5369 0c0.36162 0.15507 0.64242 0.46774 0.7542 0.84917 0.11178-0.38143 0.39258-0.6941 0.7542-0.84912h-1.5084zm7.6107 0c0.36162 0.15507 0.64242 0.46774 0.7542 0.84917 0.11178-0.38143 0.39259-0.6941 0.7542-0.84912h-1.5084zm2.5369 0c0.36161 0.15507 0.64242 0.46774 0.7542 0.84917 0.11178-0.38143 0.39258-0.6941 0.7542-0.84912h-1.5084zm-13.198 0.846c-0.15232 0-0.278 0.08441-0.33572 0.21088 0.012142 0.13202 0.027478 0.2631 0.045874 0.39322 0.066806 0.08367 0.17018 0.13583 0.28984 0.13583 0.20998 0 0.36996-0.15998 0.36996-0.36996 0-0.20993-0.15998-0.36996-0.36996-0.36996zm2.5369 0c-0.20998 0-0.36996 0.16004-0.36996 0.36996 0 0.20998 0.15998 0.36996 0.36996 0.36996s0.36996-0.15998 0.36996-0.36996c0-0.20993-0.15998-0.36996-0.36996-0.36996zm2.5369 0c-0.20998 0-0.36996 0.16004-0.36996 0.36996 0 0.20998 0.15998 0.36996 0.36996 0.36996s0.36997-0.15998 0.36997-0.36996c0-0.20993-0.15998-0.36996-0.36997-0.36996zm2.5369 0c-0.20998 0-0.36996 0.16004-0.36996 0.36996 0 0.20998 0.15998 0.36996 0.36996 0.36996s0.36996-0.15998 0.36996-0.36996c0-0.20993-0.15998-0.36996-0.36996-0.36996zm2.5369 0c-0.20998 0-0.36997 0.16004-0.36997 0.36996 0 0.20998 0.15998 0.36996 0.36997 0.36996 0.20998 0 0.36997-0.15998 0.36997-0.36996 0-0.20993-0.15998-0.36996-0.36997-0.36996zm2.5369 0c-0.20998 0-0.36996 0.16004-0.36996 0.36996 0 0.20998 0.15998 0.36996 0.36996 0.36996s0.36996-0.15998 0.36996-0.36996c0-0.20993-0.15998-0.36996-0.36996-0.36996zm2.5369 0c-0.20998 0-0.36996 0.16004-0.36996 0.36996 0 0.20998 0.15998 0.36996 0.36996 0.36996 0.11971 0 0.22304-0.05216 0.28984-0.13583 0.01851-0.13012 0.03383-0.2612 0.04587-0.39322-0.05776-0.12647-0.1834-0.21088-0.33572-0.21088zm-13.953 0.737c-0.1118 0.381-0.3926 0.694-0.7542 0.849h1.5084c-0.3616-0.155-0.6424-0.468-0.7542-0.849zm2.5369 0c-0.11178 0.38143-0.39258 0.6941-0.7542 0.84918h1.5084c-0.362-0.155-0.642-0.468-0.754-0.849zm2.5369 0c-0.11178 0.38143-0.39258 0.6941-0.7542 0.84918h1.5084c-0.362-0.155-0.642-0.468-0.754-0.849zm2.5369 0c-0.11178 0.38143-0.39258 0.6941-0.7542 0.84918h1.5084c-0.362-0.155-0.643-0.468-0.754-0.849zm2.5369 0c-0.11178 0.38143-0.39258 0.6941-0.7542 0.84918h1.5084c-0.362-0.155-0.643-0.468-0.754-0.849zm2.5369 0c-0.11178 0.38143-0.39259 0.6941-0.7542 0.84918h1.5084c-0.362-0.155-0.643-0.468-0.755-0.849zm-13.715 1.8c1.1999 2.8882 4.0454 4.9152 7.3719 4.9152s6.1721-2.027 7.3719-4.9152h-14.744z"/>
</svg>
