<?xml version="1.0" encoding="UTF-8" standalone="no"?>
<svg id="svg23257" xmlns:rdf="http://www.w3.org/1999/02/22-rdf-syntax-ns#" xmlns="http://www.w3.org/2000/svg" height="8mm" viewBox="0 0 28.346456 28.346456" width="8mm" version="1.1" xmlns:cc="http://creativecommons.org/ns#" xmlns:dc="http://purl.org/dc/elements/1.1/">
 <path id="path12020-2-6" d="m10.078 1.907c-0.088 0.0003-0.1746 0.00089-0.2616 0.004-0.068 0.002-0.1368 0.004-0.2048 0.007-0.3339 0.0594-0.4881 0.20556-0.5719 0.3729-0.092 0.18449-0.089 0.43274 0.014 0.6535 0.103 0.22086 0.2917 0.40141 0.5553 0.46885 0.2636 0.0675 0.6265 0.0326 1.1034-0.27228l0.3812 0.59668c-0.5992 0.38301-1.1791 0.48405-1.6598 0.36103-0.4807-0.12301-0.8374-0.45927-1.0217-0.85478-0.1736-0.37262-0.2055-0.8098-0.039-1.198-1.6258 0.26292-3.098 0.88641-4.2288 1.764-0.3717 0.40491-0.408 0.8755-0.2451 1.1969 0.183 0.36088 0.6141 0.62432 1.4763 0.35156l0.2143 0.67483c-1.0827 0.34247-1.9752-0.0223-2.3215-0.70559-0.084-0.16658-0.1361-0.34687-0.1564-0.53277-0.1824 0.21639-0.347 0.44165-0.4925 0.67601v0.003c-0.3263 0.74314-0.3337 1.2579-0.2037 1.5924 0.1302 0.33451 0.4029 0.54704 0.8229 0.66418 0.8398 0.23412 2.1997-0.0484 3.1574-0.76359 0.4099-0.3061 0.7984-1.0485 0.8323-1.6243 0.017-0.28792-0.044-0.51538-0.1646-0.66062-0.1205-0.14525-0.3134-0.25394-0.7127-0.24981l-0.01-0.7079c0.5488-0.005 0.9944 0.1801 1.2643 0.50552 0.2699 0.32543 0.3509 0.7445 0.3268 1.1542-0.048 0.81955-0.4771 1.6734-1.1152 2.1499-1.1319 0.84534-2.6268 1.1974-3.7706 0.87845-0.53-0.14774-0.999-0.46923-1.2407-0.96718-0.3617 1.7217 0.1637 3.3209 1.1637 4.4277 0.1307 0.14472 0.2698 0.28148 0.4156 0.40839-0.1044-0.29879-0.1522-0.60993-0.141-0.91274 0.02-0.54269 0.2304-1.0739 0.6524-1.4407 0.346-0.30103 0.8241-0.47469 1.3958-0.47355 0.038 0 0.077 0.00068 0.116 0.003 0.089 0.004 0.1804 0.0116 0.2735 0.0237l-0.092 0.70208c-0.5905-0.0776-0.9738 0.0577-1.2288 0.27939-0.255 0.22178-0.3956 0.55364-0.4097 0.9329-0.028 0.75858 0.4573 1.6444 1.5037 1.9013l-0.0009 0.007c1.0301 0.19661 2.1797 0.0141 3.3338-0.69025 0.0007-0.00045 0-0.00064 0-0.00089 0.2401-0.16859 0.3695-0.33368 0.4333-0.47595 0.075-0.1679 0.074-0.31413 0.02-0.47119-0.107-0.31406-0.4903-0.63691-0.8417-0.72689-0.5684-0.14547-0.9294 0.0544-1.0987 0.29246-0.1693 0.23792-0.1796 0.47167 0.082 0.67473l-0.4345 0.55879c-0.5375-0.41798-0.5718-1.155-0.2237-1.6444 0.2611-0.36702 0.7192-0.6185 1.2715-0.63456 0.023-0.00069 0.046-0.002 0.07-0.0009 0.1632 0.0009 0.333 0.0236 0.5091 0.0685 0.5874 0.1504 1.1304 0.57875 1.3365 1.1839 0.054 0.15742 0.079 0.32922 0.071 0.5044 0.6331-0.32346 1.3007-0.61069 1.9807-0.8264 1.1424-0.52205 1.6377-1.4372 1.6184-2.2079-0.019-0.77636-0.4996-1.4297-1.6054-1.5391l0.07-0.70442c1.3891 0.13737 2.2148 1.1308 2.2423 2.2257 0.016 0.63797-0.218 1.3018-0.689 1.8669 0.6088-0.0682 1.2139-0.0566 1.8006 0.0616-0.1194-0.24519-0.1773-0.51061-0.1692-0.77428 0.026-0.83481 0.7357-1.6136 1.8516-1.6254 0.074-0.00084 0.1505 0.002 0.2284 0.008l-0.057 0.70559c-0.9443-0.0757-1.2994 0.41998-1.3153 0.93407-0.016 0.50841 0.3238 1.0775 1.2964 1.153 1.0721 0.01 1.8407-0.57197 2.2174-1.436 0.5042-1.1568 0.2651-2.8912-1.3201-4.4774-0.03-0.03-0.06-0.0604-0.09-0.09-0.017 0.14366-0.054 0.28197-0.1076 0.41082-0.2747 0.6588-0.9181 1.1035-1.5864 1.2277-0.9219 0.17132-1.6779-0.20256-2.0268-0.77305-0.3489-0.57043-0.2573-1.3771 0.3705-1.8018l0.3966 0.5872c-0.3376 0.22836-0.3515 0.53758-0.1634 0.8452 0.1882 0.30769 0.6126 0.57417 1.294 0.44755 0.4283-0.0796 0.9053-0.42923 1.0619-0.80504 0.078-0.1879 0.094-0.3736 0.015-0.58606-0.063-0.17256-0.1965-0.3699-0.444-0.57773l-0.01-0.006c-1.0348-0.77991-2.1343-1.3408-3.2486-1.7107 0.0007 0.00089 0 0.003 0 0.004 0.2532 0.46295 0.272 0.9881 0.116 1.4526-0.3119 0.9291-1.2907 1.6611-2.5016 1.6207-0.2632-0.009-0.5137 0.1182-0.7268 0.36584-0.2132 0.24765-0.3688 0.61043-0.4049 0.99684-0.072 0.77284 0.2623 1.6247 1.5663 2.0458l-0.2181 0.67365c-1.5562-0.5032-2.1528-1.7262-2.0539-2.7852 0.05-0.52943 0.2541-1.0214 0.5742-1.3934 0.3202-0.37195 0.7757-0.629 1.287-0.61206 0.9107 0.0304 1.6033-0.53356 1.8065-1.1389 0.1016-0.30261 0.088-0.60376-0.066-0.88667-0.1503-0.27474-0.4481-0.54641-0.9814-0.74465-0.6483-0.11241-1.2941-0.16544-1.9274-0.16344zm3.8345 9.5444c-1.5879 0.12919-3.3097 0.88649-4.7461 1.764-2.1207 1.2956-4.3525 1.0128-5.936-0.16214 0.623 2.2292 2.8304 2.6817 5.1333 2.1179 0.2305-0.0865 0.4569-0.2477 0.65-0.45575 0.2674-0.28819 0.4611-0.66184 0.5221-0.97078l0.6949 0.13733c-0.093 0.46912-0.3439 0.93445-0.6973 1.3153-0.339 0.3654-0.7808 0.6573-1.2916 0.73397-0.2563 0.57092-0.4673 1.1244-0.5529 1.5118-0.1345 0.60842 0.5382 0.84197 0.8394 0.22844 0.7206-1.4677 1.7377-2.7742 3.0082-3.9008 0.9874-0.64982 1.8338-1.4511 2.3761-2.3193z" transform="matrix(1.4393 0 0 1.4393 -1.2134 -.17607)"/>
</svg>
