<?xml version="1.0" encoding="UTF-8" standalone="no"?>
<svg id="svg23257" xmlns:rdf="http://www.w3.org/1999/02/22-rdf-syntax-ns#" xmlns="http://www.w3.org/2000/svg" height="8mm" width="8mm" version="1.1" xmlns:cc="http://creativecommons.org/ns#" xmlns:dc="http://purl.org/dc/elements/1.1/" viewBox="0 0 28.346456 28.346456">
 <g id="layer1" transform="translate(-247.2 -41.84)">
  <path id="path12157-7-4" d="m263.76 43.541-1.7744 7.2042 0.8183 2.6675 2.3282-5.5498-1.3721-4.3219zm-7.4932 1.2345 0.1084 5.9176 4.8479 1.9522-4.9564-7.8699zm9.6421 6.7751-1.5788 2.1691 4.5586-2.0855-2.9798-0.083zm-5.3111 2.0922c-3.1878 2.2444-6.6485 4.0086-10.65 4.3462-0.7049 0.06-1.1603 0.4438-1.4062 0.8118-0.7371 1.1041 0.443 2.7276 2.9047 1.784-2.9681 1.7816-0.4423 4.3402 1.3426 2.3254 1.8305-2.0662 4.0069-3.9845 6.2945-4.896l0.6788-1.5095-1.7541 0.3353 2.5895-3.1972zm3.1873 1.1747 6.4344 3.3005-0.4514-2.8404-5.983-0.4601zm-1.0272 1.3578 0.309 1.8545-2.1414-0.7285c3.764 2.644 6.3181 5.9732 8.6545 10.2 1.2109 2.1907 3.8441 0.3454 1.8324-1.8325 2.2133 1.8163 4.175-1.336 2.1857-2.1857-3.403-1.4534-6.3102-3.351-8.0583-5.8505h-0.0001l-2.7818-1.457zm-2.8707 2.5043v0.0002l0.0001-0.0002h-0.0001zm0 0.0002-3.2209 4.2379 2.5005-0.5508 0.7204-3.6871zm1.0138 0.05 1.0156 6.3294 1.9467-1.0489-2.9623-5.2806z" />
 </g>
</svg>
