<?xml version="1.0" encoding="UTF-8" standalone="no"?>
<svg id="svg23257" xmlns:rdf="http://www.w3.org/1999/02/22-rdf-syntax-ns#" xmlns="http://www.w3.org/2000/svg" height="8mm" viewBox="0 0 28.346456 28.346456" width="8mm" version="1.1" xmlns:cc="http://creativecommons.org/ns#" xmlns:dc="http://purl.org/dc/elements/1.1/">
 <path id="path6" d="m6.6844 3.2012c-1.2364 0.0032-2.4739 0.4822-3.4196 1.4363-1.8914 1.9083-1.8993 4.9944-0.0176 6.8925 0.75393 0.76061 1.6969 1.215 2.6779 1.364-0.5399-0.19-1.046-0.502-1.4755-0.935-1.5378-1.552-1.5302-4.0805 0.0128-5.6372 0.7714-0.7784 1.7869-1.1694 2.8018-1.172 1.0148-0.0026 2.029 0.3835 2.7978 1.1594 0.976 0.9845 1.329 2.3625 1.062 3.6361 0.738-1.7718 0.397-3.8886-1.027-5.3254-0.9413-0.9493-2.1763-1.4219-3.4126-1.4187zm15.116 0c-1.2363-0.0032-2.4713 0.46941-3.4122 1.4186-1.4241 1.4368-1.7655 3.5537-1.0278 5.3255-0.26619-1.2735 0.08633-2.6515 1.0622-3.6361 0.7689-0.7759 1.7831-1.1619 2.7979-1.1594 1.0149 0.00256 2.0304 0.39362 2.8018 1.172 1.543 1.5567 1.5506 4.0857 0.01283 5.6374-0.42959 0.43333-0.93561 0.74485-1.4755 0.93519 0.98105-0.14897 1.924-0.60331 2.6779-1.364 1.8817-1.8985 1.8737-4.9846-0.01764-6.8928-0.94572-0.95411-2.1832-1.433-3.4196-1.4362zm-14.534 2.9393c-0.75511 0.00214-1.5113 0.29682-2.0938 0.88446-1.1649 1.1752-1.1686 3.0646-0.012721 4.2308 1.1559 1.1663 3.0159 1.1626 4.1808-0.01272 1.1651-1.175 1.1681-3.0645 0.0127-4.2308-0.578-0.5831-1.3319-0.8737-2.087-0.8717zm13.953 0c-0.75506-0.00204-1.509 0.28864-2.087 0.87179-1.1559 1.1662-1.1521 3.0555 0.01272 4.2308 1.1649 1.1753 3.0249 1.179 4.1808 0.01272s1.1521-3.0556-0.01272-4.2309c-0.583-0.5876-1.339-0.8824-2.094-0.8844zm-0.33215 0.95534c-0.31365 0.31184-0.5079 0.74367-0.5079 1.2209 0 0.9509 0.77077 1.7217 1.7217 1.7217 0.49015 0 0.93219-0.20504 1.2457-0.53371-0.05949 0.44685-0.2587 0.87778-0.59844 1.2205-0.82636 0.83384-2.1699 0.83053-3.0008-0.0077-0.8309-0.83822-0.83438-2.1935-0.0079-3.0275 0.32375-0.32659 0.72694-0.52425 1.1475-0.59411zm-14.142 0.0327c-0.295 0.3089-0.4764 0.7273-0.4764 1.1883 0 0.9509 0.77077 1.7217 1.7218 1.7217 0.55627 0 1.0506-0.26405 1.3654-0.67333-0.0384 0.4923-0.2441 0.9748-0.6184 1.3518-0.8309 0.839-2.1744 0.842-3.0008 0.008-0.8264-0.8336-0.8232-2.189 0.0077-3.0272 0.2866-0.2892 0.6343-0.4789 1.0006-0.5693zm-5.402 7.809v2.2412l1.5075-0.48459 0.55002-1.4929c-0.6853-0.08-1.3712-0.168-2.0574-0.264zm25.66 0.03666c-0.92621 0.12732-1.8532 0.23984-2.7806 0.33931l0.01454 1.6444 2.7661 1.3639v-3.3477zm-22.58 0.34209-0.59609 1.6179 1.5621 2.0154 2.0349-1.5208 0.24256-1.8232c-1.0803-0.078-2.1614-0.174-3.2436-0.29zm18.802 0.09899c-1.303 0.12561-2.6074 0.2237-3.9132 0.2942l-0.17404 2.139 2.0428 1.6855 2.0608-2.2621-0.01641-1.8566zm-14.559 0.25683-0.24716 1.857 1.9323 2.8199 1.602-1.7648-0.14336-2.7733c-1.047-0.02833-2.095-0.07472-3.1438-0.1387zm9.64 0.08659c-1.8288 0.07884-3.6604 0.10316-5.4948 0.07334l0.12791 2.4743 3.1812 1.8004 2.008-2.1664 0.17767-2.1815zm-15.183 1.8975-1.7793 0.57166v0.77077c1.0688 0.77435 2.1739 1.4758 3.3161 2.1181v-1.4776l-1.5368-1.9829zm20.857 0.28848-2.1707 2.3824 0.21033 1.9355c1.7352-0.82288 3.3302-1.7534 4.8666-2.8849l-2.9063-1.433zm-16.179 0.44985-2.142 1.6009v1.6627c1.3523 0.70748 2.7556 1.3402 4.2123 1.9182l-0.099045-2.3048-1.9713-2.877zm10.905 0.39223-2.0297 2.1899-0.16533 3.4599c1.6399-0.55376 3.144-1.1177 4.5518-1.7372l-0.23497-2.1621-2.1218-1.7505zm-6.0484 0.5079-1.8811 2.0721 0.11193 2.6013c1.1166 0.41756 2.2635 0.80712 3.4421 1.1773 0.39661-0.12454 0.78285-0.24855 1.1644-0.37256l0.18013-3.7706-3.0173-1.7075z"/>
</svg>
