<?xml version="1.0" encoding="UTF-8" standalone="no"?>
<svg id="svg23257" xmlns:rdf="http://www.w3.org/1999/02/22-rdf-syntax-ns#" xmlns="http://www.w3.org/2000/svg" height="8mm" viewBox="0 0 28.346456 28.346456" width="8mm" version="1.1" xmlns:cc="http://creativecommons.org/ns#" xmlns:dc="http://purl.org/dc/elements/1.1/">
 <path id="path20094" d="m14.174 0.42676c-7.5921 0-13.748 6.1554-13.748 13.747 0 7.5921 6.1555 13.746 13.748 13.746 0.0864 0 0.17245-0.000236 0.25855-0.0018l4.704-11.823c-11.482-5.116-4.931 7.539-17.611 1.289 0.5422-2.352 1.8183-7.6424 2.9807-9.4073 12.853 6.3363 6.1293-6.6379 18.282-0.9468 0.1862-0.26334 0.41702-0.41225 0.63358-0.46054 0.46375-0.10353 0.83136 0.28372 0.57899 1.0213l-8.025 20.21c6.7405-0.88264 11.943-6.6461 11.943-13.627 0-7.5921-6.1536-13.748-13.746-13.748zm8.135 7.692c-2.104 0.9871-3.378 4.8892-2.755 6.9242l2.755-6.9241z"/>
</svg>
