<?xml version="1.0" encoding="UTF-8" standalone="no"?>
<svg id="svg23257" xmlns:rdf="http://www.w3.org/1999/02/22-rdf-syntax-ns#" xmlns="http://www.w3.org/2000/svg" height="8mm" viewBox="0 0 28.346456 28.346456" width="8mm" version="1.1" xmlns:cc="http://creativecommons.org/ns#" xmlns:dc="http://purl.org/dc/elements/1.1/">
 <path id="path6-0" d="m14.199 0.98741c-1.011-0.00357-1.987 0.54889-2.41 1.5895v0.5415l-0.636-0.1397c-0.8-0.1772-1.4418-0.0643-1.8657 0.2148s-0.6804 0.7209-0.69 1.4218c-0.0073 0.5332 0.1079 0.8843 0.269 1.1179s0.373 0.3729 0.6655 0.4506c0.5852 0.1554 1.4912-0.02 2.2972-0.4891l0.33357-0.19395 0.283 0.26036c0.4698 0.43284 0.81103 0.61875 1.1492 0.6847 0.33827 0.065928 0.7292 0.017766 1.3102-0.1607l0.55012-0.16947 0.11531 0.56414c0.15064 0.73546 0.83338 1.3083 1.6279 1.3083 0.73988 0 1.323-0.50461 1.5266-1.1999l0.12397-0.421 0.43503 0.047091c0.49495 0.055297 1.0849-0.2261 1.3974-0.57812l0.33537-0.37729 0.38948 0.32318c1.0402 0.86564 1.982 0.94797 2.6429 0.641 0.66067-0.30709 1.1279-1.0398 1.076-2.1677-0.04916-1.0523-0.61317-1.7019-1.4253-2.0017-0.81226-0.29982-1.887-0.20178-2.8664 0.45934l-0.415 0.2813-0.298-0.4053c-0.394-0.5357-0.956-0.8655-1.494-0.9502s-1.033 0.0519-1.418 0.4699l-0.414 0.4488-0.379-0.4784c-0.584-0.7359-1.409-1.089-2.215-1.0918zm-10.445 5.6191c-1.5326 4.6775-2.2043 9.4515-2.035 14.322 2.2106 0.963 4.551 1.012 6.8994 1.006 0.1316-0.619 0.2546-1.26 0.3686-1.913-1.7943 0.094-3.5825 0.141-5.2716-0.51-0.1302-3.738 0.3866-6.798 1.5651-10.454 1.5269 0.3637 3.0747 0.4816 4.6532 0.4177-0.0036-0.6548-0.0216-1.2607-0.0576-1.8059-2.0775-0.0965-4.1134-0.4831-6.1221-1.062zm8.2724 0.16601c-0.36723 0.18389-0.74731 0.3253-1.1285 0.41396 0.17283 1.87 0.10883 4.3817-0.12218 7.1039-0.26701 3.1458-0.77503 6.5117-1.4777 9.3186h15.083c-0.555-2.937-1.052-6.237-1.319-9.318-0.216-2.494-0.293-4.8132-0.114-6.6913-0.602-0.0717-1.232-0.3154-1.841-0.739-0.419 0.3347-0.947 0.5671-1.523 0.6009-0.417 0.9081-1.309 1.572-2.386 1.572-1.098 0-2.0592-0.66291-2.4786-1.6175-0.46169 0.10536-0.89392 0.14013-1.3258 0.055868-0.47901-0.093341-0.92047-0.33615-1.3676-0.69868zm-4.3808 17.881-1.041 2.7056h20.049l-1.214-2.7056h-17.793z"/>
</svg>
