<?xml version="1.0" encoding="UTF-8" standalone="no"?>
<svg id="svg23257" xmlns:rdf="http://www.w3.org/1999/02/22-rdf-syntax-ns#" xmlns="http://www.w3.org/2000/svg" height="8mm" viewBox="0 0 28.346456 28.346456" width="8mm" version="1.1" xmlns:cc="http://creativecommons.org/ns#" xmlns:dc="http://purl.org/dc/elements/1.1/">
 <path id="path6" d="m10.377 0.7771v3.1201h9.0464v-3.1201h-9.0464zm0.85919 4.2517c-0.03996 0.17559-0.0941 0.31867-0.16651 0.41996-0.16251 0.22706-0.42584 0.39926-1.1807 0.39926-1.3042 0-2.4706 0.35494-3.3397 0.97447-0.86905 0.61953-1.4475 1.5378-1.4475 2.5733v15.222c0 1.9581 1.5897 3.5497 3.5478 3.5497h12.925c1.958 0 3.5477-1.5916 3.5477-3.5497v-15.222c0-1.0355-0.57685-1.9497-1.4285-2.5696-0.85174-0.61983-1.9878-0.97822-3.2357-0.97822-1.0106 0-1.4302-0.21119-1.6272-0.43522-0.08537-0.09712-0.14714-0.22391-0.19109-0.38406h-1.158c0.06497 0.40314 0.20405 0.79543 0.49952 1.1314 0.49105 0.55844 1.3032 0.81923 2.4768 0.81923 1.028 0 1.9409 0.30323 2.5697 0.76073 0.6285 0.4575 0.96303 1.0354 0.96303 1.6556v15.222c0 1.3536-1.0626 2.4182-2.4163 2.4182h-12.925c-1.3536 0-2.4163-1.0646-2.4163-2.4182v-15.222c0-0.62032 0.33029-1.194 0.97253-1.6518 0.64224-0.45793 1.5876-0.76449 2.6831-0.76449 0.96648 0 1.6988-0.31134 2.1002-0.87232 0.23638-0.33029 0.34713-0.69904 0.40114-1.0784h-1.1541zm4.0018 2.7492c-1.8495 0-3.0312 0.77896-3.8316 1.9565-0.74445 1.0953-1.1133 2.5621-1.1617 4 1.5157 0.77472 2.395 1.6731 2.6547 2.7229 0.04446 0.17965 0.07102 0.35978 0.07944 0.53919 0.54554 0.31086 1.4059 0.51103 2.2895 0.51091 0.7832-0.000119 1.5791-0.15367 2.1854-0.41627 0.0092-0.20132 0.03736-0.40337 0.08901-0.60549 0.27162-1.0646 1.1521-2.0102 2.6887-2.7588-0.05074-1.3599-0.41131-2.8213-1.1504-3.9319-0.79924-1.2013-1.9827-2.017-3.8428-2.017zm-1.8089 4.5336c0.55444 0 1.0047 0.44837 1.0047 1.0029 0 0.55444-0.45018 1.0047-1.0047 1.0047-0.55445 0-1.0028-0.45024-1.0028-1.0047 0-0.55444 0.44836-1.0028 1.0029-1.0028zm3.3566 0c0.5545 0 1.0047 0.44837 1.0047 1.0029 0 0.55444-0.45036 1.0047-1.0048 1.0047-0.5545 0-1.0029-0.45024-1.0029-1.0047 0-0.55444 0.44836-1.0028 1.0029-1.0028zm-1.7465 2.0341c0.37994 0.80215 0.68118 1.6047 0.83073 2.4068-0.5539-0.18298-1.1074-0.20744-1.6613 0 0.20223-0.80227 0.44515-1.6048 0.83073-2.4068zm-2.2421 3.843c-0.12933 0.38872-0.32 0.7737-0.55632 1.1522 0.72234 0.48378 1.9121 0.77563 3.0804 0.76255 1.1486-0.01296 2.2329-0.33726 2.7986-0.75123-0.21495-0.349-0.38824-0.71447-0.50522-1.0899-0.72338 0.26739-1.5394 0.386-2.3463 0.38606-0.87474 0.000125-1.742-0.13454-2.4712-0.4598zm-4.2781 1.033c-0.53889 0.68226-0.76861 1.3619-0.60731 2.1987 4.1733 0.33544 9.9417 1.9327 13.726 3.6783 0.55463-0.67609 0.75795-1.3726 0.60367-2.227-4.1034-0.41579-9.9382-1.7399-13.722-3.65zm13.114 0c-1.2588 0.63552-2.7444 1.2053-4.3179 1.6992 1.229 0.26847 2.4373 0.48681 3.5554 0.64714 0.47119-0.06212 0.92985-0.1122 1.3699-0.14762 0.16106-0.83678-0.0686-1.5164-0.60748-2.1986zm-12.337 3.483c-0.47858 0.06564-0.94214 0.12171-1.385 0.16651-0.1544 0.85434 0.049024 1.551 0.60355 2.227 1.2942-0.59701 2.8201-1.1775 4.4352-1.6952-1.2637-0.29742-2.5058-0.53695-3.6537-0.69825z"/>
</svg>
