<?xml version="1.0" encoding="UTF-8" standalone="no"?>
<svg id="svg23257" xmlns:rdf="http://www.w3.org/1999/02/22-rdf-syntax-ns#" xmlns="http://www.w3.org/2000/svg" height="8mm" viewBox="0 0 28.346456 28.346456" width="8mm" version="1.1" xmlns:cc="http://creativecommons.org/ns#" xmlns:dc="http://purl.org/dc/elements/1.1/">
 <path id="path6" d="m2.0909 0.93107v24.458l1.0424-1.5248v-22.933h-1.0424zm2.8009 0v22.764h1.0425v-22.764h-1.0424zm3.0162 0v15.338h0.17906c0.26275-0.30921 0.55237-0.60079 0.86354-0.87491v-14.463h-1.0426zm2.8009 0v13.22c0.33733-0.19134 0.68592-0.36717 1.0426-0.5266v-12.693h-1.0426zm2.8009 0v12.051c0.34474-0.09969 0.69283-0.18632 1.0426-0.258v-11.793h-1.0426zm2.7291 0v11.562c0.28879-0.01991 0.57625-0.03014 0.86085-0.02857 0.06069 0.000338 0.12105 0.0019 0.18157 0.0029v-11.536h-1.0424zm3.0162 0v11.777c0.23273 0.05456 0.46022 0.11948 0.68263 0.19301 0.09416-0.11491 0.19246-0.22804 0.29621-0.33861 0.02095-0.02233 0.04257-0.04352 0.06376-0.06549v-11.566h-1.0426zm2.8009 0v10.274c0.34251-0.16657 0.69227-0.29398 1.0426-0.37989v-9.894h-1.0426zm2.8008 0v9.8367c0.37124 0.07531 0.72396 0.21119 1.0426 0.41252v-10.249h-1.0426zm-0.709 10.805c-0.19569-0.000334-0.4003 0.01952-0.61195 0.05991-0.84646 0.16149-1.7759 0.66421-2.5412 1.4801-0.27245 0.29052-0.50334 0.5995-0.69361 0.91552-5.202-3.213-18.465 4.216-10.024 10.56h-6.6558l-1.4756 2.6633h14.346l-4.9357-5.7597c1.354-1.49 3.7629-2.4382 5.4109-2.514 0.76937 2.5157 2.022 6.3315 4.0016 8.2736h3.3953c-2.4489-2.6466-4.3422-6.22-4.5874-10.261 0.10526 0.31629 0.27546 0.59114 0.5097 0.81165 0.50462 0.47517 1.238 0.64135 2.0844 0.4799 0.84652-0.16149 1.776-0.6641 2.5413-1.4801 0.76535-0.81589 1.2086-1.7769 1.3171-2.6341 0.10838-0.85722-0.1032-1.5815-0.60776-2.0566-0.37844-0.35629-0.88557-0.53887-1.4727-0.53971z"/>
</svg>
