<?xml version="1.0" encoding="UTF-8" standalone="no"?>
<svg id="svg23257" xmlns:rdf="http://www.w3.org/1999/02/22-rdf-syntax-ns#" xmlns="http://www.w3.org/2000/svg" height="8mm" viewBox="0 0 28.346456 28.346456" width="8mm" version="1.1" xmlns:cc="http://creativecommons.org/ns#" xmlns:dc="http://purl.org/dc/elements/1.1/">
 <path id="path6-8" d="m14.487 2.6211c-1.3422 0.435-2.6635 1.3812-3.5687 2.7381 0.86507 2.3618 0.86507 2.8234 0 5.1852 0.98223 0.76246 1.9873 1.2209 2.9971 1.3545-0.10172-1.2605-0.17899-2.5212 0.05547-3.7815-0.67183-0.073123-1.1525-0.2956-1.8244-0.68411v-1.5886c1.7685 0.9416 3.0492 0.92587 4.8723 0v1.5887c-0.65896 0.32036-1.0792 0.55028-1.7381 0.65176 0.1782 1.2607 0.1716 2.5221 0.0678 3.783 0.91931-0.16099 1.8361-0.59728 2.7366-1.3237-0.70773-2.3617-0.70783-2.8234 0-5.1851-0.837-1.3811-2.339-2.2995-3.597-2.7383zm-6.3906 0.4052c-1.2774 5.4444-1.3486 10.618-1.3511 16.318-0.9289-0.076-1.8531-0.253-2.7626-0.549v1.408h3.4056c0.42972 1.727 0.31913 3.4542-0.051081 5.1813h1.3871c-0.3548-1.727-0.4062-3.454-0.043-5.181h3.3976v-1.408c-0.91172 0.24369-1.837 0.42169-2.7661 0.51577 0.0039-5.667 0.1229-10.999-1.2164-16.285zm4.4116 9.9788c0 5.7824 1.2582 11.506 5.9247 12.72 5.1371-1.0372 5.931-6.9218 5.931-12.72h-11.856z" fill-rule="evenodd"/>
</svg>
