<?xml version="1.0" encoding="UTF-8" standalone="no"?>
<svg id="svg23257" xmlns:rdf="http://www.w3.org/1999/02/22-rdf-syntax-ns#" xmlns="http://www.w3.org/2000/svg" height="8mm" viewBox="0 0 28.346456 28.346456" width="8mm" version="1.1" xmlns:cc="http://creativecommons.org/ns#" xmlns:dc="http://purl.org/dc/elements/1.1/">
 <path id="path6" d="m7.2005 0.74874c-0.95641 0-1.8183 0.2005-2.3961 0.48945-0.57789 0.28895-0.80024 0.61631-0.80024 0.84721 0 0.23089 0.22235 0.55826 0.80024 0.84721 0.57785 0.28896 1.4397 0.48945 2.3961 0.48945s1.8183-0.2005 2.3961-0.48945c0.5784-0.289 0.8004-0.6164 0.8004-0.8473s-0.222-0.5583-0.8004-0.8472c-0.5781-0.28897-1.4399-0.48941-2.3963-0.48941zm9.2985 1.8598c-0.95641 0-1.8183 0.2005-2.3961 0.48945-0.5779 0.28895-0.80026 0.61632-0.80026 0.84721s0.22236 0.55826 0.80026 0.84721c0.57785 0.28895 1.4397 0.48945 2.3961 0.48945 0.26442 0 0.52111-0.015697 0.76712-0.044034 0.25106-0.32161 0.61196-0.5865 1.0182-0.78968 0.41054-0.20515 0.88696-0.36188 1.4087-0.46376 0.0013-0.013386 0.0018-0.026433 0.0018-0.039141 0-0.23089-0.22236-0.55826-0.80025-0.84721-0.579-0.2891-1.441-0.4895-2.397-0.4895zm-12.495 1.0719v0.26472c0 0.14616 0.074559 0.32394 0.31772 0.53449 0.24315 0.21061 0.64363 0.42331 1.164 0.57359 1.0407 0.30046 2.3884 0.30046 3.4293 0 0.5207-0.1503 0.9212-0.363 1.164-0.5736 0.243-0.2105 0.318-0.3883 0.318-0.5345v-0.26472c-0.106 0.0673-0.217 0.1304-0.332 0.1879-0.7687 0.3841-1.7665 0.5999-2.8643 0.5999s-2.0957-0.2158-2.864-0.5999c-0.115-0.0576-0.2259-0.1206-0.3324-0.1879zm17.144 1.2136c-0.95641 0-1.8183 0.20061-2.3961 0.48957-0.57789 0.28895-0.80026 0.6162-0.80026 0.84709s0.22235 0.55826 0.80026 0.84721c0.57785 0.28895 1.4397 0.48945 2.3961 0.48945 0.95641 0 1.8183-0.2005 2.3961-0.48945 0.578-0.2891 0.8-0.6164 0.8-0.8473 0-0.23089-0.22235-0.55814-0.80026-0.84709-0.57769-0.28885-1.4391-0.4895-2.3959-0.4895zm-7.8456 0.64596v0.13441c0.16854 0.062381 0.32952 0.13135 0.4812 0.20713 0.52519 0.26268 0.97634 0.6273 1.2094 1.0862 0.59126 0.14297 1.2623 0.19562 1.9126 0.15795v-0.8088c-0.13396 0.0068-0.26942 0.010869-0.40681 0.010869-1.0978 0-2.0957-0.21573-2.8639-0.59987-0.11507-0.057557-0.22596-0.1206-0.33243-0.18789zm-9.2985 0.00136v0.26332c0 0.14616 0.074559 0.32393 0.31772 0.53449 0.2434 0.2106 0.6438 0.4233 1.1642 0.5735 0.3973 0.1148 0.8391 0.1854 1.2914 0.2125 0.1155-0.3037 0.3255-0.5699 0.5922-0.7968-0.7429 0.0161-1.4914-0.0732-2.1736-0.2703-0.453-0.1307-0.8537-0.3022-1.1914-0.5166zm6.9163 0.78641c-0.95641 0-1.8183 0.2005-2.3961 0.48945-0.5779 0.28896-0.80024 0.61632-0.80024 0.84721s0.22235 0.55826 0.80024 0.84721c0.57785 0.28895 1.4397 0.48945 2.3961 0.48945 0.95641 0 1.8183-0.2005 2.3961-0.48945 0.57791-0.28895 0.80025-0.61631 0.80025-0.84721 0-0.23089-0.22235-0.55826-0.80025-0.84721-0.57784-0.28896-1.4397-0.48945-2.3961-0.48945zm-6.9157 1.0734v0.26326c0 0.14616 0.074559 0.32394 0.31772 0.53449 0.24315 0.21061 0.64363 0.42331 1.164 0.5736 0.36776 0.10611 0.77411 0.17394 1.1916 0.20514v-0.80473c-0.5101-0.0347-1.0119-0.1197-1.482-0.2555-0.4532-0.1307-0.8538-0.3024-1.1916-0.5166zm13.947 0.42454v0.26472c0 0.14616 0.07456 0.32394 0.31772 0.53449 0.24315 0.2106 0.64363 0.42337 1.164 0.57359 1.0407 0.30047 2.3884 0.30047 3.4293 0 0.52036-0.15023 0.92084-0.36299 1.164-0.57359 0.2431-0.21056 0.31766-0.38834 0.31766-0.53449v-0.26472c-0.10647 0.067276-0.21735 0.13036-0.33242 0.18789-0.76829 0.38415-1.7661 0.59987-2.8639 0.59987s-2.0957-0.21572-2.8639-0.59987c-0.11463-0.057656-0.22586-0.12065-0.33141-0.18795zm-2.7896 0.24676v0.79329c0.54832 0.11402 1.1545 0.15383 1.7435 0.1197v-0.80653c-0.58488 0.030792-1.1776-0.00477-1.7435-0.10636zm-7.4388 1.187v0.26466c0 0.14616 0.074558 0.32394 0.31772 0.53449 0.24315 0.2106 0.64363 0.42332 1.164 0.57359 1.0407 0.30047 2.3884 0.30047 3.4293 0 0.52036-0.15029 0.92084-0.36299 1.164-0.57359 0.2431-0.21056 0.31766-0.38834 0.31766-0.53449v-0.26472c-0.10647 0.06728-0.21736 0.13036-0.33242 0.18789-0.76829 0.38415-1.7661 0.59987-2.8639 0.59987s-2.0957-0.21572-2.8639-0.59987c-0.1142-0.0575-0.2251-0.1205-0.3316-0.1878zm-3.7194 0.00136v0.26326c0 0.14616 0.074559 0.32394 0.31772 0.53449 0.24315 0.2106 0.64363 0.42331 1.164 0.57359 0.36776 0.10611 0.77411 0.17394 1.1916 0.20515v-0.80473c-0.5089-0.0346-1.0108-0.1185-1.4809-0.2547-0.4532-0.1306-0.8537-0.3031-1.1916-0.5168zm13.947 0.42598v0.26326c0 0.14617 0.07456 0.32394 0.31772 0.5345 0.24315 0.21061 0.64363 0.42337 1.164 0.5736 1.0407 0.30046 2.3884 0.30046 3.4293 0 0.52036-0.15023 0.92084-0.36299 1.164-0.5736 0.2431-0.21056 0.31766-0.38832 0.31766-0.5345v-0.26326c-0.33783 0.21432-0.73847 0.38589-1.1916 0.51665-1.2607 0.36391-2.7487 0.36391-4.0096 0-0.45313-0.13076-0.85372-0.30233-1.1916-0.51665zm-2.7896 0.24525v0.79329c0.54832 0.11402 1.1545 0.15383 1.7435 0.1197v-0.80653c-0.58488 0.0308-1.1776-0.0048-1.7435-0.10634zm-11.158 1.1884v0.26326c0 0.14617 0.074559 0.32394 0.31772 0.5345 0.24315 0.21061 0.64363 0.42332 1.164 0.5736 0.36776 0.10611 0.77411 0.17394 1.1916 0.20514v-0.80473c-0.5085-0.034-1.0103-0.119-1.4804-0.255-0.4532-0.131-0.8537-0.302-1.1916-0.517zm3.7194 0v0.26326c0 0.14617 0.074558 0.32394 0.31772 0.5345 0.24315 0.21061 0.64363 0.42332 1.164 0.5736 1.0407 0.30046 2.3884 0.30046 3.4293 0 0.52036-0.15029 0.92084-0.36299 1.164-0.5736 0.2431-0.21056 0.31766-0.38832 0.31766-0.5345v-0.26326c-0.33783 0.21428-0.73847 0.3859-1.1916 0.51665-1.2607 0.36391-2.7487 0.36391-4.0096 0-0.4515-0.132-0.8521-0.303-1.1899-0.518zm10.228 0.42599v0.26326c0 0.14616 0.07456 0.32394 0.31772 0.53449 0.24315 0.2106 0.64363 0.42337 1.164 0.5736 1.0407 0.30046 2.3884 0.30046 3.4293 0 0.52036-0.15024 0.92084-0.36299 1.164-0.5736 0.2431-0.21056 0.31766-0.38834 0.31766-0.53449v-0.26326c-0.33783 0.21434-0.73847 0.38588-1.1916 0.51665-1.2607 0.36392-2.7487 0.36392-4.0096 0-0.45313-0.13076-0.85372-0.30232-1.1916-0.51665zm-2.7896 0.24525v0.79328c0.54832 0.11402 1.1545 0.15383 1.7435 0.11973v-0.80653c-0.58488 0.03079-1.1776-0.0047-1.7435-0.10636zm-7.4388 1.1884v0.13297c0.16853 0.06238 0.32951 0.13134 0.4812 0.20712 0.52524 0.26268 0.97646 0.62737 1.2095 1.0863 1.0076 0.24385 2.2478 0.22566 3.2203-0.0551 0.52036-0.15023 0.92084-0.36293 1.164-0.5736 0.2431-0.21049 0.31766-0.38821 0.31766-0.53443v-0.26326c-0.33783 0.21427-0.73847 0.38588-1.1916 0.51665-1.2607 0.36392-2.7487 0.36392-4.0096 0-0.4504-0.13-0.851-0.301-1.1889-0.515zm10.228 0.42599v0.26326c0 0.14616 0.07456 0.32394 0.31772 0.53448 0.24315 0.21061 0.64363 0.42337 1.164 0.5736 1.0407 0.30046 2.3884 0.30046 3.4293 0 0.52036-0.15023 0.92084-0.36299 1.164-0.5736 0.2431-0.21056 0.31766-0.38832 0.31766-0.53448v-0.26326c-0.33783 0.21432-0.73847 0.38588-1.1916 0.51664-1.2607 0.36391-2.7487 0.36391-4.0096 0-0.45313-0.13076-0.85372-0.30233-1.1916-0.51664zm-2.7896 0.24524v0.79329c0.54832 0.11402 1.1545 0.15383 1.7435 0.11971v-0.80653c-0.58488 0.03079-1.1776-0.0047-1.7435-0.10636zm-9.8215 0.11504c-0.95641 0-1.8183 0.2005-2.3961 0.48945-0.57791 0.28895-0.80025 0.61631-0.80025 0.84721s0.22235 0.55825 0.80025 0.84721c0.57784 0.28896 1.4397 0.48945 2.3961 0.48945 0.95641 0 1.8183-0.2005 2.3961-0.48945 0.5779-0.28895 0.80025-0.61631 0.80025-0.84721s-0.22235-0.55826-0.80025-0.84721c-0.5743-0.287-1.4362-0.487-2.3926-0.487zm8.7795 1.074c-0.33783 0.21428-0.73847 0.3859-1.1916 0.51665-1.0443 0.30144-2.2437 0.3516-3.3414 0.15354v0.79409c0.9749 0.20305 2.1325 0.17225 3.0513-0.09299 0.52036-0.15023 0.92084-0.36293 1.164-0.57359 0.2431-0.2105 0.31766-0.38822 0.31766-0.53443v-0.26328zm3.8357 0.42599v0.26326c0 0.14616 0.07456 0.32394 0.31772 0.53449 0.23508 0.20358 0.61836 0.40856 1.1136 0.5578 0.21735-0.19922 0.47818-0.3702 0.76074-0.51159 0.06693-0.03343 0.13623-0.06509 0.20649-0.09601-0.41495-0.04322-0.82159-0.12008-1.207-0.2313-0.45307-0.13075-0.85372-0.30231-1.1916-0.51664zm6.3927 0c-0.16506 0.10461-0.34509 0.19887-0.53873 0.28337 0.18016 0.01801 0.35625 0.04266 0.52781 0.07278 0.0071-0.03213 0.01096-0.06333 0.01096-0.09288v-0.26326zm-9.1823 0.24525v0.79154c0.40664 0.08612 0.85912 0.13715 1.3366 0.13715 0.13796 0 0.27343-0.0047 0.40681-0.01324v-0.80897c-0.58488 0.03079-1.1776-0.0047-1.7435-0.10647zm7.8456 1.0449c-0.95641 0-1.8183 0.2005-2.3961 0.48945-0.5779 0.28895-0.80026 0.61631-0.80026 0.84721 0 0.23089 0.22236 0.55826 0.80026 0.84721 0.57785 0.28895 1.4397 0.48945 2.3961 0.48945s1.8183-0.2005 2.3961-0.48945c0.57789-0.28895 0.80025-0.61631 0.80025-0.84721s-0.22236-0.55825-0.80025-0.84721c-0.57785-0.28896-1.4397-0.48945-2.3961-0.48945zm-20.864 0.14208v0.26472c0 0.14616 0.074565 0.32394 0.31772 0.53449 0.24315 0.21061 0.64363 0.42332 1.164 0.5736 1.0407 0.30046 2.3884 0.30046 3.4293 0 0.52038-0.15029 0.92084-0.36298 1.164-0.5736 0.24311-0.21056 0.31766-0.38834 0.31766-0.53449v-0.26472c-0.10647 0.06728-0.21734 0.13036-0.33242 0.18789-0.76829 0.38415-1.7661 0.59987-2.8639 0.59987s-2.0957-0.21572-2.8639-0.59987c-0.1167-0.058-0.2276-0.121-0.334-0.188zm11.971 0.0013c-0.33783 0.21427-0.73847 0.38588-1.1916 0.51665-1.0443 0.30144-2.2437 0.3516-3.3414 0.15354v0.79409c0.9749 0.20305 2.1325 0.17225 3.0513-0.09299 0.52036-0.15022 0.92084-0.36294 1.164-0.57359 0.2431-0.2105 0.31766-0.38822 0.31766-0.53443v-0.26326zm3.8357 0.42598v0.26326c0 0.2309 0.22235 0.55826 0.80025 0.84721 0.0041 0.0018 0.0089 0.0041 0.01339 0.0061v-0.72395c-0.30034-0.10992-0.57314-0.24038-0.81362-0.39294zm-15.808 1.4338v0.26326c0 0.14616 0.074565 0.32394 0.31772 0.53448 0.24315 0.21061 0.64363 0.42332 1.164 0.5736 1.0407 0.30046 2.3884 0.30046 3.4293 0 0.52038-0.15029 0.92084-0.36299 1.164-0.5736 0.24311-0.21056 0.31766-0.38832 0.31766-0.53448v-0.26326c-0.33782 0.21427-0.73847 0.38588-1.1916 0.51664-1.2607 0.36392-2.7487 0.36392-4.0096 0-0.4533-0.12708-0.85394-0.2996-1.1918-0.51297zm7.4388 0.67008v0.79316c0.2839 0.06001 0.59046 0.10269 0.91224 0.12286 0.11537-0.30489 0.32556-0.57186 0.5932-0.79944-0.50712 0.01113-1.0163-0.02834-1.5054-0.11657zm5.0561 0.11623c-0.95641 0-1.8183 0.2005-2.3961 0.48945-0.5779 0.28896-0.80025 0.61632-0.80025 0.84721s0.22235 0.55826 0.80025 0.84721c0.57785 0.28895 1.4397 0.48945 2.3961 0.48945 0.95641 0 1.8183-0.2005 2.3961-0.48945 0.5779-0.28895 0.80026-0.61631 0.80026-0.84721s-0.22235-0.55826-0.80026-0.84721c-0.57785-0.28895-1.4397-0.48945-2.3961-0.48945zm5.1723 0.14208v0.26472c0 0.14616 0.07457 0.32394 0.31772 0.53449 0.24315 0.2106 0.64363 0.42332 1.164 0.57359 1.0407 0.30047 2.3884 0.30047 3.4293 0 0.52038-0.15029 0.92084-0.36299 1.164-0.57359 0.2431-0.21056 0.31766-0.38834 0.31766-0.53449v-0.26472c-0.10647 0.06728-0.21736 0.13036-0.33243 0.18789-0.76828 0.38415-1.7661 0.59987-2.8639 0.59987s-2.0957-0.21572-2.8639-0.59987c-0.11507-0.05756-0.22596-0.1206-0.33243-0.18789zm-17.667 0.93131v0.26326c0 0.14616 0.074565 0.32394 0.31772 0.53449 0.24315 0.21061 0.64363 0.42332 1.164 0.5736 1.0407 0.30046 2.3884 0.30046 3.4293 0 0.52038-0.15029 0.92084-0.36299 1.164-0.5736 0.24311-0.21056 0.31766-0.38834 0.31766-0.53449v-0.26326c-0.33782 0.21428-0.73847 0.3859-1.1916 0.51665-1.2607 0.36392-2.7487 0.36392-4.0096 0-0.4533-0.12708-0.85394-0.29846-1.1918-0.51297zm17.667 0.92984v0.26328c0 0.14616 0.07457 0.32394 0.31772 0.53448 0.24315 0.21061 0.64363 0.42332 1.164 0.5736 1.0407 0.30046 2.3884 0.30046 3.4293 0 0.52038-0.15029 0.92084-0.36299 1.164-0.5736 0.2431-0.21056 0.31766-0.38832 0.31766-0.53448v-0.26328c-0.33783 0.21428-0.73848 0.3859-1.1916 0.51665-1.2608 0.36391-2.7487 0.36391-4.0096 0-0.45312-0.13076-0.85371-0.30237-1.1916-0.51665zm-8.3687 0.9284v0.26472c0 0.14616 0.07456 0.32394 0.31772 0.5345 0.24315 0.2106 0.64363 0.42332 1.164 0.57359 1.0407 0.30047 2.3884 0.30047 3.4293 0 0.52038-0.15029 0.92084-0.36299 1.164-0.57359 0.24311-0.21056 0.31766-0.38834 0.31766-0.5345v-0.26472c-0.10647 0.06727-0.21735 0.13036-0.33242 0.18789-0.7683 0.38415-1.7661 0.59987-2.8639 0.59987s-2.0957-0.21572-2.8639-0.59987c-0.11506-0.05756-0.22595-0.1206-0.33242-0.18789zm-9.2986 0.0013v0.26332c0 0.14616 0.074565 0.32394 0.31772 0.53449 0.24315 0.2106 0.64363 0.42332 1.164 0.5736 1.0407 0.30047 2.3884 0.30047 3.4293 0 0.52038-0.15029 0.92084-0.36299 1.164-0.5736 0.24311-0.21056 0.31766-0.38833 0.31766-0.53449v-0.26326c-0.33782 0.21427-0.73847 0.38588-1.1916 0.51664-1.2607 0.36392-2.7487 0.36392-4.0096 0-0.4535-0.13-0.8541-0.301-1.1919-0.515zm17.667 0.92984v0.26332c0 0.14616 0.07457 0.32394 0.31772 0.5345 0.24315 0.21061 0.64363 0.42332 1.164 0.57359 1.0407 0.30047 2.3884 0.30047 3.4293 0 0.52038-0.15028 0.92084-0.36298 1.164-0.57359 0.2431-0.21056 0.31766-0.38834 0.31766-0.5345v-0.26326c-0.33783 0.21427-0.73848 0.3859-1.1916 0.51665-1.2608 0.36392-2.7487 0.36392-4.0096 0-0.45312-0.13076-0.85371-0.30237-1.1916-0.51665zm-17.667 0.92986v0.26332c0 0.14616 0.074565 0.32394 0.31772 0.5345 0.24315 0.21061 0.64363 0.42331 1.164 0.5736 1.0407 0.30046 2.3884 0.30046 3.4293 0 0.52038-0.15029 0.92084-0.36299 1.164-0.5736 0.24311-0.21056 0.31766-0.38833 0.31766-0.5345v-0.26326c-0.33782 0.21428-0.73847 0.3859-1.1916 0.51665-1.2607 0.36391-2.7487 0.36391-4.0096 0-0.45313-0.13072-0.85372-0.30232-1.1916-0.5166zm9.2986 0v0.26332c0 0.2309 0.22235 0.55826 0.80025 0.84721 0.57785 0.28895 1.4397 0.48945 2.3961 0.48945 0.95641 0 1.8183-0.2005 2.3961-0.48945 0.5779-0.28895 0.80026-0.61631 0.80026-0.84721v-0.26326c-0.33783 0.21428-0.73847 0.3859-1.1916 0.51665-1.2607 0.36391-2.7487 0.36391-4.0096 0-0.45313-0.13077-0.85372-0.30237-1.1916-0.51665zm8.3687 0.92984v0.26332c0 0.2309 0.22236 0.55826 0.80025 0.84721 0.57785 0.28895 1.4397 0.48945 2.3961 0.48945s1.8183-0.2005 2.3961-0.48945c0.57789-0.28896 0.80025-0.61632 0.80025-0.84721v-0.26326c-0.33783 0.21427-0.73848 0.38588-1.1916 0.51665-1.2608 0.36392-2.7487 0.36392-4.0096 0-0.45312-0.13076-0.85371-0.30237-1.1916-0.51665zm-17.667 0.92984v0.26332c0 0.23089 0.22235 0.55826 0.80025 0.84721 0.57784 0.28895 1.4397 0.48945 2.3961 0.48945 0.95641 0 1.8183-0.2005 2.3961-0.48945 0.5779-0.28895 0.80025-0.61632 0.80025-0.84721v-0.26326c-0.33782 0.21419-0.73847 0.3858-1.1916 0.51658-1.2607 0.36392-2.7487 0.36392-4.0096 0-0.4538-0.124-0.8544-0.296-1.1923-0.51z"/>
</svg>
