<?xml version="1.0" encoding="UTF-8" standalone="no"?>
<svg id="svg23257" xmlns:rdf="http://www.w3.org/1999/02/22-rdf-syntax-ns#" xmlns="http://www.w3.org/2000/svg" height="8mm" viewBox="0 0 28.346456 28.346456" width="8mm" version="1.1" xmlns:cc="http://creativecommons.org/ns#" xmlns:dc="http://purl.org/dc/elements/1.1/">
 <path id="path6" d="m14.722 0.72188-0.23474 1.4188c-1.0086-0.0056-1.9965 0.1158-2.9462 0.352l-0.529-1.4047-3.0902 1.163 0.5553 1.4731c-0.8412 0.4814-1.6232 1.0622-2.3261 1.7307l-1.2577-1.0319-2.0949 2.5504 1.2962 1.0633c-0.4787 0.8087-0.8671 1.6835-1.1491 2.6114l-1.685-0.278-0.53772 3.256 1.7043 0.282c-0.020963 0.96509 0.073597 1.9129 0.27499 2.8271l-1.6202 0.60956 1.1631 3.0898 1.6045-0.60434c0.45233 0.84228 1.0039 1.6281 1.6412 2.3401l-1.0631 1.2944 2.5521 2.0932 1.0281-1.2524c0.80635 0.51107 1.6838 0.92916 2.6169 1.2401l-0.25391 1.5414 3.2562 0.53776 0.24343-1.4732c1.0115 0.04899 2.0046-0.03027 2.9637-0.22589l0.50278 1.3329 3.0881-1.1631-0.47812-1.2699c0.90388-0.46763 1.7451-1.0472 2.503-1.7253l1.0053 0.82507 2.0932-2.5522-0.96341-0.78993c0.54554-0.86038 0.98684-1.8006 1.3032-2.8042l1.1999 0.19786 0.53585-3.2562-1.1804-0.1945c0.03408-1.056-0.07186-2.091-0.30312-3.0862l1.111-0.419-1.163-3.0895-1.131 0.4256c-0.498-0.9032-1.111-1.7394-1.822-2.4873l0.794-0.9669-2.551-2.0949-0.825 1.0053c-0.863-0.5109-1.801-0.9175-2.799-1.2034l0.223-1.3504-3.257-0.53773zm-0.451 2.687c0.62419-0.00841 1.2576 0.038397 1.8951 0.1436 5.8287 0.96206 9.7832 6.4798 8.8211 12.308-0.96206 5.8285-6.4798 9.7832-12.308 8.8211-5.8284-0.962-9.783-6.48-8.8209-12.309 0.8418-5.0996 5.173-8.7652 10.147-8.9572 0.08884-0.00338 0.17712-0.00577 0.26624-0.00695zm0.01215 1.0474c-0.08055 0.00113-0.16143 0.00225-0.24158 0.00526-4.4917 0.1702-8.3883 3.4705-9.1493 8.0814-0.8699 5.27 2.6891 10.236 7.9593 11.105 5.27 0.87 10.233-2.689 11.103-7.959s-2.687-10.233-7.957-11.103c-0.577-0.0952-1.149-0.1368-1.713-0.1297zm0.02288 1.0177c0.50446-0.0065 1.017 0.030605 1.5326 0.11569 4.7137 0.77799 7.8948 5.2179 7.1168 9.9315-0.77799 4.7137-5.2161 7.8948-9.9298 7.1168-1.4466-0.23878-2.7482-0.82283-3.836-1.6535l6.1481-7.4898 2.962 2.4312 3.2755-3.9902-6.0659-4.9762-5.7084 1.9915 3.9796 3.265-6.0415 7.3637c-1.5123-1.853-2.2511-4.322-1.8302-6.873 0.6808-4.1241 4.1638-7.0746 8.1818-7.2267 0.07174-0.00281 0.14332-0.0043 0.21541-0.00526z"/>
</svg>
