<?xml version="1.0" encoding="UTF-8" standalone="no"?>
<svg id="svg23257" xmlns:rdf="http://www.w3.org/1999/02/22-rdf-syntax-ns#" xmlns="http://www.w3.org/2000/svg" height="8mm" viewBox="0 0 28.346456 28.346456" width="8mm" version="1.1" xmlns:cc="http://creativecommons.org/ns#" xmlns:dc="http://purl.org/dc/elements/1.1/">
 <path id="path6" d="m14.174 0.88611c-2.4932 0-4.7764 1.4274-6.4691 3.8241s-2.7622 5.7502-2.7622 9.4638c0 3.7138 1.0696 7.0656 2.7623 9.4623s3.9759 3.824 6.4691 3.824c0.31164 0 0.6193-0.02281 0.92366-0.0665h-0.29221v-5.6556c-0.1709-0.0063-0.34405-0.0105-0.51948-0.0105-2.3869 0-4.3599 0.59964-5.0154 1.4028-0.68558-1.7801 1.7829-2.5069 4.4748-2.5347 0.17952-0.002 0.36006-0.000781 0.54064 0.0036 0.75001 0.01772 1.6583 0.07636 2.5085 0.21339v-5.402c-0.4368-0.24109-0.74116-0.56566-0.8117-0.96042 1.9486 0.66279 5.331 0.18904 5.8935-0.19778-0.35127 1.4611-2.44 1.8635-4.0356 1.529v5.255c0.8464 0.23567 1.5047 0.58778 1.6758 1.1108h0.0069v0.02093c0.04792 0.15994 0.05071 0.3356 0 0.52827v2.2936c0.396-0.40781 0.77044-0.85967 1.1196-1.354 1.6927-2.3967 2.7605-5.7485 2.7605-9.4621 0-3.7138-1.0678-7.0672-2.7605-9.464-1.694-2.3975-3.977-3.8249-6.47-3.8249zm-4.725 9.8909c1.7651 0 3.2332 1.1974 3.546 2.7797-0.72695-0.68015-2.0522-1.2337-3.567-1.41-1.2287-0.14297-2.3333-0.0082-3.0945 0.3202 0.62574-1.011 1.7865-1.6899 3.1156-1.6899zm-3.5319 4.1039c0.7378 0.6568 2.0343 1.1873 3.511 1.3592 1.2554 0.14622 2.3793 0.0012 3.1418-0.34276-0.62495 1.016-1.788 1.7004-3.1208 1.7004-1.7409 0-3.1927-1.1662-3.5319-2.7168zm9.9346 6.9361v5.423c0.9283-0.24631 1.8108-0.69302 2.6258-1.3155v-3.4199c-0.655-0.32-1.568-0.564-2.626-0.687z"/>
</svg>
