<?xml version="1.0" encoding="UTF-8" standalone="no"?>
<svg id="svg23257" xmlns:rdf="http://www.w3.org/1999/02/22-rdf-syntax-ns#" xmlns="http://www.w3.org/2000/svg" height="8mm" viewBox="0 0 28.346456 28.346456" width="8mm" version="1.1" xmlns:cc="http://creativecommons.org/ns#" xmlns:dc="http://purl.org/dc/elements/1.1/">
 <path id="path6-8" d="m22.185-0.21649-3.4606 4.2846 2.079 1.2994 3.4152-4.2282-2.0335-1.3558zm-10.81 1.0008h0.000124l-1.3582 2.0371 14.853 9.2833 1.358-2.0371-4.5542-2.8464zm13.103 2.9973v-1.2661l-2.8383 3.3105 0.79515 0.51107zm-14.685 0.20941v1.652l4.1412 2.5883 0.88665-1.0978-5.0286-3.1424zm5.976 3.7355-13.615 16.858 2.0333 1.355 13.661-16.913-2.079-1.2995zm3.4732 2.1707v1.652l5.2352 3.2722v-1.652l-5.2352-3.272zm-1.1201 0.78096-13.275 16.398v1.1391l13.275-16.341v-1.1962zm8.3297 1.0558-0.86382 1.2957v0.95946l0.86382-1.2957zm-24.557 14.012v1.6218l1.851 1.1955v-1.5833z"/>
</svg>
