<?xml version="1.0" encoding="UTF-8" standalone="no"?>
<svg id="svg23257" xmlns:rdf="http://www.w3.org/1999/02/22-rdf-syntax-ns#" xmlns="http://www.w3.org/2000/svg" height="8mm" viewBox="0 0 28.346456 28.346456" width="8mm" version="1.1" xmlns:cc="http://creativecommons.org/ns#" xmlns:dc="http://purl.org/dc/elements/1.1/">
 <path id="path6" d="m14.167 1.1626c-0.73502 0-1.4281 0.42097-1.9686 1.1914-0.54055 0.7704-0.89524 1.8771-0.89524 3.1087 0 1.2314 0.35469 2.3365 0.8953 3.1069 0.54055 0.77051 1.2336 1.1914 1.9686 1.1914 0.73502 0 1.4263-0.42092 1.9669-1.1914 0.54066-0.77035 0.89705-1.8754 0.89705-3.1069 0-1.2314-0.35639-2.3382-0.897-3.1087-0.54-0.7704-1.232-1.1914-1.967-1.1914zm-8.2302 2.3588c-1.1123 0.03144-1.3145 0.76098-1.7409 1.5902-1.2762 2.4817-3.0437 9.0247-3.0437 9.0247l8.7903-0.29778 1.5954 7.5371-1.2478 5.8081h8.1671l-1.2206-5.8065 1.3284-7.532 8.6292 0.29104c0.000103 0-1.7674-6.5431-3.0435-9.0247-0.42656-0.82934-0.62869-1.5588-1.741-1.5902-0.98042 0-1.7751 0.85191-1.7751 1.9018s0.79472 1.9019 1.7751 1.9019c0.20421 0 0.39758-0.04842 0.58032-0.11646l0.43478 4.0758-6.4057-2.1962c-0.01561 0.02301-0.03024 0.04749-0.04618 0.07012-0.68122 0.97089-1.6764 1.6264-2.8057 1.6264-1.1292 0-2.1244-0.65548-2.8056-1.6264-0.01517-0.02164-0.02958-0.0447-0.04448-0.06672l-6.3943 2.1938 0.4348-4.0763c0.1828 0.06804 0.37616 0.1164 0.58038 0.1164 0.98042 0 1.7751-0.85197 1.7751-1.9019 0-1.0498-0.79467-1.9018-1.7751-1.9018z"/>
</svg>
