<?xml version="1.0" encoding="UTF-8" standalone="no"?>
<svg id="svg8148" xmlns:rdf="http://www.w3.org/1999/02/22-rdf-syntax-ns#" xmlns="http://www.w3.org/2000/svg" height="11.243mm" width="11.289mm" version="1.1" xmlns:cc="http://creativecommons.org/ns#" xmlns:xlink="http://www.w3.org/1999/xlink" viewBox="0 0 40.00001 39.8363" xmlns:dc="http://purl.org/dc/elements/1.1/">
 <g id="layer1" transform="translate(-148.57 -261.01)">
  <path id="path18824" d="m168.11 261.02c-0.0659-0.0007-0.13152 0.0002-0.1979 0-0.92912 0.033-1.8815 0.4341-2.7334 1.504l-0.43532 0.5461-0.59631-0.3667c-1.1541-0.7122-2.6129-0.9765-3.8415-0.7388-1.2286 0.2376-2.1977 0.9048-2.6463 2.1423l-0.30595 0.8416-0.79415-0.4087c-1.3713-0.7042-2.0868-0.715-2.6806-0.4487-0.4733 0.2124-0.9672 0.7223-1.5276 1.467l6.96 5.3796c1.0908 0.3519 2.684 0.345 4.2847-0.069 1.5999-0.4133 3.1967-1.2191 4.3586-2.3138l2.6277-6.4929c-0.55688-0.5448-1.3863-0.9726-2.2743-1.0368-0.0656-0.01-0.132-0.01-0.1979-0.01zm1.1134 8.5086-0.0501 0.05c-1.4184 1.3928-3.2961 2.3332-5.1818 2.8204-0.58112 0.1502-1.1638 0.2596-1.7358 0.322-0.31086 0.516-0.56793 1.0353-0.77587 1.5594h0.045c0.11824 2.0413 0.9992 3.6287 2.2584 5.1396l-1.2109 1.0106c-0.6999-0.8398-1.3287-1.7529-1.7968-2.7704-0.0776 1.961 0.35644 3.9865 1.079 6.0974l-1.4933 0.5118c-1.3183-3.8515-1.7681-7.7997 0.0845-11.514-0.62357-0.05-1.218-0.1654-1.765-0.3588l-0.029-0.01c-0.35968 0.3445-0.70497 0.7065-1.0342 1.087-2.6713 3.0886-4.1395 7.2017-3.3717 10.406 0.41115 1.716 1.1509 3.336 2.2083 4.7174 0.30842-0.025 0.61261-0.041 0.91013-0.045 0.97809-0.011 1.8912 0.092 2.7044 0.3058 0.25665 0.067 0.50486 0.15 0.74406 0.2428 0.63186-0.067 1.2871-0.1029 1.9604-0.1029 2.404 0 4.5847 0.4472 6.2344 1.2216 0.64048 0.3006 1.2192 0.6626 1.6886 1.0816-0.005-0.063-0.006-0.1261-0.006-0.19 0-0.3857 0.0717-0.7518 0.20582-1.0976-0.75459-0.7076-1.2269-1.5658-1.2269-2.5486 0-1.3609 0.9076-2.4776 2.2137-3.2927 0.001-0.3903 0.0755-0.7615 0.21362-1.1107-0.85823-0.7371-1.4062-1.651-1.4062-2.7095 0-0.6684 0.219-1.2784 0.59631-1.8231-0.37739-0.5447-0.59631-1.1547-0.59631-1.8231 0-0.3219 0.0506-0.6295 0.14528-0.9235-0.81792-0.7263-1.3351-1.6195-1.3351-2.6489 0-1.0222 0.51112-1.9075 1.3193-2.6304-0.50149-0.3884-1.0327-0.7181-1.5962-0.971zm9.4084 0.198c-2.197 0-4.1798 0.4587-5.5459 1.1451-1.366 0.6864-2.0077 1.5249-2.0077 2.2584s0.64164 1.5746 2.0077 2.261c1.366 0.6864 3.3489 1.1425 5.5459 1.1425 0.94746 0 1.8556-0.086 2.6911-0.2375v-1.4378c1.1703-0.1746 2.1453-0.4981 2.7702-0.9103v1.4828c0.0277-0.013 0.0573-0.026 0.0845-0.04 1.366-0.6864 2.0105-1.5276 2.0105-2.261s-0.64433-1.572-2.0105-2.2584c-1.366-0.6864-3.3489-1.1451-5.5459-1.1451zm8.1473 5.7094c-0.28148 0.3024-0.61488 0.5792-0.98417 0.8311l0.0211 2.451c1.0591-0.6352 1.5619-1.3675 1.5619-2.0157 0-0.4042-0.19502-0.8413-0.59875-1.2664zm-14.508 1.3061c0.0222 0.7241 0.66587 1.5472 2.0077 2.2213 1.3662 0.6864 3.349 1.1425 5.5459 1.1425 1.3775 0 2.671-0.1798 3.7808-0.4828l0.0526-2.3032c-1.4493 0.5087-3.1728 0.7915-5.0262 0.7915-2.4111 0-4.5991-0.4804-6.2529-1.3114-0.0368-0.018-0.072-0.039-0.108-0.058zm0.1663 2.9389c-0.1136 0.2275-0.16902 0.4519-0.16902 0.6676 0 0.7335 0.64437 1.5748 2.0105 2.2612 1.366 0.6864 3.3489 1.1423 5.5459 1.1423 1.1139 0 2.1723-0.117 3.1238-0.322v-2.0315c-0.97567 0.1868-2.0264 0.285-3.1238 0.285-2.4112 0-4.6018-0.4804-6.2556-1.3112-0.40761-0.2048-0.78854-0.4365-1.132-0.6914zm14.772 0c-0.34338 0.255-0.72439 0.4867-1.1318 0.6915-0.1168 0.059-0.2369 0.1138-0.35882 0.1689v1.881c1.1259-0.6481 1.6595-1.406 1.6595-2.0738 0-0.2151-0.0558-0.4405-0.16885-0.6675zm0.63321 3.1028c-0.17139 0.1712-0.35763 0.334-0.55924 0.4882v2.7412c0.87078-0.5913 1.2875-1.247 1.2875-1.8363 0-0.4446-0.23775-0.9282-0.7282-1.3931zm-14.363 1.1874c-0.0112 0.069-0.0186 0.1385-0.0186 0.2057 0.00018 0.7337 0.64445 1.5721 2.0106 2.2585 1.366 0.6863 3.3489 1.1451 5.5459 1.1451 1.2624 0 2.4538-0.1499 3.4984-0.4089v-2.5223c-1.3765 0.4387-2.9773 0.6807-4.6911 0.6807-2.4111 0-4.6017-0.4804-6.2555-1.3113-0.0304-0.016-0.0598-0.032-0.0898-0.047zm-1.1477 1.7993c-0.73155 0.552-1.0843 1.1504-1.0843 1.6911 0 0.7336 0.64416 1.5748 2.0102 2.2612 1.3662 0.6864 3.349 1.1423 5.546 1.1423 0.80544 0 1.5805-0.06 2.3084-0.1714v-1.5357c-0.0318 0.0002-0.063 0-0.095 0-2.4111 0-4.6017-0.4802-6.2555-1.3112-1.052-0.5285-1.93-1.2291-2.4298-2.0764zm13.722 2.5909c-0.66951 0.2361-1.3986 0.4226-2.1715 0.5567v1.0184c0.1621-0.069 0.31912-0.1394 0.46704-0.2136 0.82909-0.4167 1.3905-0.8896 1.7044-1.3615zm0.77292 1.5329c-0.31828 0.3183-0.69315 0.6065-1.1081 0.8654v2.422c1.1259-0.6482 1.6595-1.4061 1.6595-2.0738 0-0.3875-0.18051-0.8052-0.55131-1.2136zm-29.442 0.2375c-0.8561 0.01-1.7917 0.1193-2.7544 0.3429-1.9252 0.4475-3.585 1.2669-4.6646 2.1688-1.0797 0.9017-1.4978 1.8057-1.3745 2.4589 0.1232 0.6532 0.79301 1.2524 2.0921 1.5936 1.2992 0.3411 3.1115 0.355 5.0367-0.092 0.77591-0.1803 1.5076-0.4196 2.1766-0.7019v-1.7413c1.2267-0.5476 2.1501-1.2137 2.5646-1.8494v2.0579c1.0217-0.8799 1.4209-1.7585 1.3006-2.3956-0.1232-0.6531-0.79573-1.2497-2.0949-1.591-0.64951-0.1705-1.426-0.2603-2.2821-0.2505zm5.4588 0.4405c0.22881 0.3288 0.38921 0.6991 0.46705 1.1109 0.0954 0.5051 0.0536 1.0005-0.095 1.48 0.82925 0.2162 1.5883 0.5128 2.2505 0.884 0.37062 0.2077 0.7151 0.4447 1.0237 0.7044 0.76171-0.1827 1.3992-0.435 1.8522-0.7334v1.7333c1.3663-0.6425 1.984-1.426 1.984-2.0526 0-0.6273-0.61918-1.4121-1.9894-2.0552-1.3554-0.6363-3.3176-1.0621-5.4931-1.0714zm9.4323 0.4171c-0.005 0.039-0.008 0.08-0.008 0.1185 0 0.7335 0.64419 1.5746 2.0104 2.261 1.3661 0.6864 3.3489 1.1425 5.5459 1.1425 1.114 0 2.1723-0.1169 3.1238-0.3219v-2.2665c-1.247 0.3377-2.6536 0.5226-4.1449 0.5226-2.4112 0-4.6019-0.4829-6.2557-1.314-0.0917-0.046-0.1828-0.094-0.27187-0.1424zm0.24003 3.1524c-0.16531 0.275-0.24806 0.5475-0.24806 0.8074 0 0.7335 0.64437 1.5746 2.0105 2.261 1.366 0.6864 3.3489 1.1425 5.5459 1.1425 1.1139 0 2.1723-0.1169 3.1238-0.3219v-2.2266c-0.97567 0.1868-2.0264 0.2849-3.1238 0.2849-2.4112 0-4.6018-0.4803-6.2556-1.3111-0.37739-0.1896-0.72971-0.4033-1.0528-0.636zm14.617 0c-0.32354 0.2332-0.67754 0.4461-1.0554 0.6359-0.11664 0.059-0.2369 0.1138-0.35882 0.1689v2.0764c1.1259-0.6482 1.6595-1.4061 1.6595-2.0738 0-0.2598-0.0805-0.5326-0.24526-0.8074zm-24.706 0.4568c-0.29296 0.37-0.63928 0.7218-1.029 1.0473-1.3222 1.1045-3.1796 1.9961-5.319 2.4931-0.77166 0.1795-1.529 0.2932-2.2584 0.3484 0.27016 0.4489 0.74549 0.89 1.4406 1.2798 1.1565 0.6481 2.8444 1.0843 4.7174 1.0843 0.85077 0 1.6615-0.091 2.4036-0.2505v-1.7599c1.17-0.1745 2.1453-0.4983 2.7701-0.9103v1.554c0.84623-0.5867 1.2534-1.2571 1.2534-1.889 0-0.7365-0.55319-1.5234-1.7097-2.1715-0.62054-0.3479-1.3958-0.6348-2.269-0.8257z"/>
 </g>
</svg>
