<?xml version="1.0" encoding="UTF-8" standalone="no"?>
<svg id="svg10005" xmlns:rdf="http://www.w3.org/1999/02/22-rdf-syntax-ns#" xmlns="http://www.w3.org/2000/svg" height="11.289mm" width="9.7925mm" version="1.1" xmlns:cc="http://creativecommons.org/ns#" xmlns:xlink="http://www.w3.org/1999/xlink" viewBox="0 0 34.697938 40" xmlns:dc="http://purl.org/dc/elements/1.1/">
 <g id="layer1" transform="translate(-74.08 -35.219)">
  <path id="path18966" d="m74.487 35.219-0.11133 1.3321s-0.39374 4.6552-0.27344 10.293 0.67739 12.239 2.8945 16.486c1.3883 2.6593 3.3087 5.5672 5.6953 7.8652s5.2903 4.0195 8.582 4.0234c3.3684 0 6.3476-1.7503 8.8008-4.0996 2.4532-2.3492 4.4323-5.3276 5.8594-8.0547 2.1689-4.1446 2.7087-10.577 2.8223-16.07s-0.27539-10.027-0.27539-10.027l-0.10742-1.2852-1.248 0.334s-2.6783 0.7166-6.0449 1.4238c-3.3666 0.7073-7.4489 1.3931-10.014 1.3497-2.4534-0.042-6.3458-0.8296-9.5508-1.6172-3.2049-0.7876-5.75-1.5645-5.75-1.5645l-1.2793-0.3887zm1.9629 2.8399c1.0548 0.3039 2.5427 0.7194 4.5508 1.2129 3.2669 0.8028 7.1761 1.6274 10.031 1.6758 2.9665 0.05 7.0632-0.6722 10.492-1.3926 2.2075-0.4638 3.7957-0.8498 4.8828-1.125 0.0971 1.3942 0.27588 4.3419 0.18945 8.5215-0.11099 5.3669-0.78569 11.69-2.5762 15.111-1.3449 2.5699-3.2301 5.3783-5.4395 7.4941s-4.6926 3.5032-7.3027 3.5c-2.533 0-4.9422-1.3538-7.0859-3.4179-2.1437-2.0642-3.9701-4.8084-5.2773-7.3125-1.8407-3.5261-2.5367-10.017-2.6543-15.529-0.09132-4.2797 0.09068-7.2973 0.18945-8.7383zm1.9082 7.2832c-0.32404 5.7713 3.2643 7.3301 8.7637 6.832-1.2966-3.4998-3.8755-6.0345-8.7637-6.832zm26.275 0c-4.8882 0.7975-7.4672 3.3322-8.7637 6.832 5.4993 0.4981 9.0876-1.0607 8.7637-6.832zm-24.529 11.53c1.1225 1.9878 2.2462 3.6825 3.3711 5.0859 5.3579 1.5623 10.766 1.4666 16.244-0.072 1.0728-1.3919 2.1354-3.0632 3.1875-5.0137-6.7353 5.9969-15.839 5.7276-22.803 0zm18.512 6.3476c-4.6835 1.1153-9.3417 1.197-13.963 0.1 4.7116 5.0297 9.4151 4.9576 13.963-0.1z" />
 </g>
</svg>
