<?xml version="1.0" encoding="UTF-8" standalone="no"?>
<svg id="svg8790" xmlns:rdf="http://www.w3.org/1999/02/22-rdf-syntax-ns#" xmlns="http://www.w3.org/2000/svg" height="9.0062mm" width="11.289mm" version="1.1" xmlns:cc="http://creativecommons.org/ns#" xmlns:xlink="http://www.w3.org/1999/xlink" viewBox="0 0 40 31.911857" xmlns:dc="http://purl.org/dc/elements/1.1/">
 <g id="layer1" transform="translate(-25.714 -144.98)">
  <path id="path18964" d="m35.394 144.98c-1.4798 0.47718-2.6377 1.0011-4.0644 2.048-0.18496 0.17709-0.36628 0.35639-0.54388 0.54101 0.02032 0.0478 0.05152 0.10688 0.09776 0.19002 0.08576 0.15472 0.23368 0.33977 0.41974 0.52278-0.2917 0.46754-0.55706 0.93507-0.80232 1.404-0.30945-0.25674-0.58713-0.54245-0.81027-0.86313-0.64329 0.80275-1.2225 1.6619-1.7261 2.5708 0.03328 0.13808 0.13152 0.28882 0.31924 0.49068 0.22431 0.24095 0.57471 0.48983 0.98187 0.70216-0.17093 0.5166-0.31756 1.0307-0.43799 1.5438-0.62833-0.28546-1.203-0.65604-1.6548-1.1269-0.50166 1.1658-0.88449 2.4002-1.1322 3.687 0.1128 0.20556 0.31365 0.39382 0.61753 0.59389 0.42834 0.28206 1.0439 0.51314 1.7129 0.64666-0.0032 0.54364 0.02112 1.0829 0.06864 1.6151-0.96338-0.14129-1.8922-0.44323-2.6498-0.94218-0.0048-0.003-0.0096-0.005-0.0128-0.008-0.11056 1.3166-0.0736 2.6147 0.09232 3.877 0.19509 0.29389 0.52159 0.50309 1.0081 0.67039 0.62548 0.21503 1.4756 0.28242 2.3411 0.19527 0.1689 0.51703 0.36105 1.0244 0.57513 1.5202-1.1798 0.17718-2.3847 0.13696-3.4283-0.2217-0.02848-0.01-0.05616-0.0213-0.08448-0.0317 0.33596 1.3082 0.81582 2.5649 1.4226 3.7503 0.30007 0.23682 0.7052 0.35607 1.2432 0.39322 0.78542 0.0544 1.7857-0.14608 2.7395-0.53569 0.31349 0.44398 0.6444 0.87327 0.99235 1.2879-1.2305 0.56711-2.564 0.90155-3.8058 0.82344 0.84049 1.2332 1.8274 2.3617 2.9427 3.3571 0.35978 0.12208 0.78544 0.12368 1.2984 0.0237 0.81075-0.15825 1.7613-0.62531 2.6206-1.2668 0.000672 0.00041 0.0016-0.00044 0.0032 0 0.43529 0.33595 0.88475 0.65452 1.3433 0.95011-1.0114 0.83694-2.1641 1.4945-3.3385 1.7921 0.98422 0.6655 2.0394 1.239 3.1538 1.7048 0.41697 0.0357 0.86904-0.0811 1.3803-0.32988 0.64795-0.31543 1.3327-0.86582 1.945-1.5438 1.4388 0.57286 2.9333 0.94758 4.4392 1.0899l0.1504-1.573c-1.205-0.11408-2.4141-0.40284-3.5946-0.83931 0.58131-0.93811 0.98053-1.9571 1.0928-2.8239 0.09952-0.76973 0.0064-1.3645-0.31941-1.8106-0.68238-0.13344-1.342-0.33275-1.9741-0.59119-0.0144 0.54643-0.144 1.0968-0.35639 1.6126-0.31628 0.76879-0.80401 1.5031-1.396 2.1722-0.45209-0.2777-0.89227-0.577-1.3223-0.89735 0.5591-0.60655 1.007-1.2643 1.2589-1.8766 0.32143-0.78088 0.35244-1.4001 0.0528-1.9264-0.65436-0.41864-1.2671-0.90678-1.8342-1.4543-0.14976 0.36316-0.35361 0.70689-0.59388 1.0214-0.46247 0.60513-1.0618 1.141-1.7366 1.5966-0.34796-0.39863-0.68003-0.81102-0.99235-1.2405 0.60403-0.39642 1.1229-0.85299 1.4754-1.3143 0.42548-0.55691 0.60975-1.0481 0.54625-1.5281-0.42025-0.55344-0.80182-1.1471-1.1401-1.7736-0.19298 0.22683-0.41046 0.43408-0.64668 0.61508-0.57074 0.43705-1.2497 0.77318-1.9767 1.016-0.21917-0.48055-0.41865-0.97105-0.59119-1.4726 0.62726-0.20312 1.1933-0.47996 1.6072-0.797 0.48105-0.36839 0.74337-0.72166 0.80502-1.119-0.25589-0.67547-0.46518-1.3783-0.62547-2.1036-0.15856 0.0907-0.32261 0.17093-0.49086 0.23756-0.62918 0.2489-1.3302 0.37448-2.0506 0.40117-0.05584-0.52025-0.08672-1.0475-0.0872-1.581 0.58755-0.0222 1.1371-0.12144 1.5573-0.28757 0.38849-0.15377 0.64143-0.32092 0.78907-0.52784-0.08592-0.82089-0.11232-1.6629-0.06864-2.5178-0.05488 0.008-0.10896 0.016-0.16367 0.0211-0.55943 0.0613-1.1449 0.0128-1.7234-0.11345 0.11568-0.50504 0.25928-1.0143 0.43022-1.5255 0.4113 0.0789 0.80553 0.10336 1.1216 0.0688 0.22077-0.0242 0.38276-0.0638 0.50673-0.11872 0.11776-0.75419 0.28775-1.4901 0.5042-2.1985-0.35319-0.0621-0.69963-0.17668-1.0346-0.32727 0.23935-0.46086 0.50049-0.92291 0.78915-1.3855 0.20388 0.0813 0.39829 0.14064 0.56474 0.16639 0.09344 0.0144 0.17085 0.0224 0.23496 0.0237 0.16434-0.39188 0.33967-0.77447 0.53054-1.1455 0.49812-0.99674 1.0485-2.048 1.4357-3.204zm20.639 0c0.38707 1.1558 0.93744 2.2072 1.4357 3.204 0.19087 0.37101 0.36872 0.7536 0.5329 1.1454 0.0635-0.001 0.14017-0.01 0.23225-0.0237 0.16722-0.0258 0.36282-0.0845 0.56754-0.16637 0.28866 0.46255 0.5498 0.9246 0.78914 1.3856-0.33579 0.15088-0.68374 0.26518-1.0371 0.32734 0.21645 0.70858 0.3862 1.4442 0.50393 2.1984 0.12448 0.0555 0.28749 0.0946 0.50952 0.11888 0.31602 0.0346 0.71026 0.01 1.1216-0.0686 0.1711 0.51204 0.3118 1.0222 0.42759 1.5282-0.57742 0.12561-1.1623 0.17196-1.7208 0.11089-0.0554-0.006-0.1104-0.0128-0.16613-0.0211 0.0437 0.85502 0.02 1.6969-0.0661 2.5178 0.14785 0.20691 0.40075 0.37413 0.78923 0.52785 0.41948 0.16595 0.96802 0.26519 1.5545 0.28765-0.00052 0.53342-0.0312 1.0608-0.087 1.581-0.71955-0.027-1.4195-0.15265-2.048-0.40116-0.1684-0.0667-0.33217-0.14688-0.49094-0.23765-0.16005 0.7242-0.37016 1.4264-0.62548 2.1008 0.0603 0.39862 0.32052 0.75266 0.80232 1.1217 0.41416 0.31696 0.98011 0.59372 1.6074 0.79692-0.17263 0.50166-0.37202 0.99208-0.59118 1.4727-0.72614-0.24281-1.404-0.57953-1.9741-1.016-0.23682-0.18141-0.45606-0.38781-0.6493-0.61508-0.33866 0.62683-0.71956 1.2199-1.1401 1.7736-0.0642 0.47986 0.1208 0.97139 0.54642 1.5282 0.35201 0.46087 0.87099 0.91803 1.4752 1.3144-0.31223 0.42945-0.6444 0.84168-0.99235 1.2404-0.6748-0.45572-1.2741-0.9915-1.7366-1.5967-0.23968-0.31374-0.44202-0.65689-0.59118-1.0189-0.5667 0.5471-1.1803 1.0334-1.8343 1.4516-0.29957 0.52641-0.26856 1.1456 0.0528 1.9266 0.2521 0.6123 0.69996 1.2699 1.259 1.8766-0.4303 0.32051-0.87268 0.61939-1.3249 0.89725-0.59143-0.66905-1.0771-1.4034-1.3935-2.1722-0.21223-0.51569-0.34178-1.0661-0.35639-1.6124-0.63316 0.25877-1.2933 0.45758-1.9767 0.59118-0.32709 0.44593-0.41889 1.0408-0.31924 1.8105 0.11216 0.86685 0.5135 1.8859 1.0951 2.824-1.1802 0.43645-2.3895 0.72521-3.5946 0.83923l0.14784 1.573c1.5067-0.1424 3.002-0.51652 4.4418-1.09 0.6123 0.67801 1.297 1.2284 1.945 1.5438 0.51145 0.24888 0.96346 0.36568 1.3804 0.32987 1.1148-0.46592 2.1691-1.039 3.1537-1.7049-1.1736-0.29729-2.3277-0.95375-3.3385-1.7896 0.4596-0.29592 0.90704-0.61593 1.3433-0.95266 0.85976 0.64221 1.8121 1.1086 2.6233 1.2668 0.51145 0.0998 0.93659 0.10016 1.2959-0.0211 1.1158-0.99556 2.1046-2.1259 2.9454-3.3596-1.2419 0.0781-2.5781-0.25633-3.8085-0.82344 0.34796-0.41493 0.68121-0.84371 0.99488-1.2879 0.95391 0.38933 1.9541 0.59001 2.7397 0.53562 0.5378-0.0371 0.94303-0.15648 1.2429-0.39322 0.60663-1.1854 1.0867-2.4422 1.4226-3.7503-0.0283 0.01-0.056 0.0219-0.0845 0.0317-1.0434 0.35868-2.2484 0.39889-3.4284 0.2217 0.21418-0.49575 0.40649-1.0032 0.57539-1.5202 0.86447 0.0867 1.7136 0.0194 2.3384-0.19534 0.48688-0.16722 0.81499-0.37625 1.0108-0.67032 0.16595-1.2623 0.20032-2.5605 0.0899-3.877-0.003 0.002-0.006 0.005-0.0112 0.008-0.75755 0.49896-1.6866 0.80089-2.6498 0.94217 0.0475-0.53223 0.0723-1.0715 0.0686-1.6152 0.66889-0.13361 1.2846-0.36459 1.7127-0.64667 0.30345-0.19981 0.50217-0.38882 0.61509-0.59388-0.2478-1.2866-0.63088-2.5212-1.1324-3.6869-0.45158 0.47042-1.0247 0.84117-1.6521 1.127-0.12048-0.5133-0.26705-1.0274-0.43814-1.544 0.4058-0.21224 0.75518-0.46146 0.97916-0.70208 0.18681-0.20066 0.28731-0.35048 0.32203-0.48815-0.5042-0.9099-1.0822-1.7697-1.7262-2.5733-0.22314 0.32058-0.50082 0.60638-0.81009 0.86312-0.24535-0.46897-0.5107-0.93661-0.80232-1.4041 0.18647-0.18293 0.33385-0.36823 0.41957-0.52277 0.0454-0.0819 0.0778-0.13985 0.0976-0.18734-0.17785-0.1852-0.36104-0.36602-0.54624-0.54362-1.4267-1.0469-2.5846-1.5709-4.0644-2.048zm-19.1 5.1465 2.0348 10.955h13.859l1.9345-10.515-4.8931 5.3629-3.7979-5.6742-3.8004 5.6743-5.3365-5.8036zm2.3278 12.534 0.30092 1.623h12.676l0.29837-1.623h-13.275z"/>
 </g>
</svg>
