<?xml version="1.0" encoding="UTF-8" standalone="no"?>
<svg id="svg9396" xmlns:rdf="http://www.w3.org/1999/02/22-rdf-syntax-ns#" xmlns="http://www.w3.org/2000/svg" height="10.741mm" width="11.289mm" version="1.1" xmlns:cc="http://creativecommons.org/ns#" xmlns:xlink="http://www.w3.org/1999/xlink" viewBox="0 0 40 38.059361" xmlns:dc="http://purl.org/dc/elements/1.1/">
 <g id="layer1" transform="translate(-12.143 -15.475)">
  <path id="path18842" d="m32.13 15.476-3.6007 9.3286-9.9766 3.0343 8.9403-0.35416-3.0578 7.9229 8.6205-12.436 4.2146 5.4052-5.1403-12.901zm4.2302 5.3448 3.0528 8.5837-8.589-0.56648 14.44 4.5215-3.9024 5.6334 10.782-8.7515-9.814-0.64536-5.969-8.775zm-10.362 8.3059-13.855 0.90989 7.3799 5.99-0.0315 10.669 2.3289-8.8042 6.9107 5.6099-9.1712-12.032 6.4384-2.342zm5.9716 1.5918c-14.391 17.536-7.1956 8.7682 0 0zm6.9602 2.2056 0.43557 15.125-6.596-1.8517 11.789 7.3381-2.552-9.3417 6.1736-8.6835-6.9551 5.8223-2.2948-8.4079zm-15.712 7.0652-3.6585 13.394 8.3005-5.1638 10.126 3.3096-7.595-4.8858 7.3092-4.5476-14.369 4.7442-0.11264-6.8501z" />
 </g>
</svg>
