<?xml version="1.0" encoding="UTF-8" standalone="no"?>
<svg
   xmlns:dc="http://purl.org/dc/elements/1.1/"
   xmlns:cc="http://creativecommons.org/ns#"
   xmlns:rdf="http://www.w3.org/1999/02/22-rdf-syntax-ns#"
   xmlns:svg="http://www.w3.org/2000/svg"
   xmlns="http://www.w3.org/2000/svg"
   xmlns:sodipodi="http://sodipodi.sourceforge.net/DTD/sodipodi-0.dtd"
   xmlns:inkscape="http://www.inkscape.org/namespaces/inkscape"
   id="svg7275"
   height="6.0959mm"
   width="6.096mm"
   version="1.1"
   viewBox="0 0 21.600004 21.599786"
   inkscape:version="0.91 r"
   sodipodi:docname="constitution.svg">
  <metadata
     id="metadata9">
    <rdf:RDF>
      <cc:Work
         rdf:about="">
        <dc:format>image/svg+xml</dc:format>
        <dc:type
           rdf:resource="http://purl.org/dc/dcmitype/StillImage" />
        <dc:title></dc:title>
      </cc:Work>
    </rdf:RDF>
  </metadata>
  <defs
     id="defs7" />
  <sodipodi:namedview
     pagecolor="#ffffff"
     bordercolor="#666666"
     borderopacity="1"
     objecttolerance="10"
     gridtolerance="10"
     guidetolerance="10"
     inkscape:pageopacity="0"
     inkscape:pageshadow="2"
     inkscape:window-width="720"
     inkscape:window-height="480"
     id="namedview5"
     showgrid="false"
     inkscape:zoom="10.926105"
     inkscape:cx="10.8"
     inkscape:cy="10.067632"
     inkscape:window-x="0"
     inkscape:window-y="0"
     inkscape:window-maximized="0"
     inkscape:current-layer="svg7275" />
  <g
     id="layer1"
     transform="matrix(1.2033878,0,0,1.2033878,-2.8761169,-2.9257377)">
    <path
       id="path4487-6-3"
       d="M 15.419,2.3299 C 13.8964,2.3359 12.3378,3.11662 11.2887,4.7923 9.9607,2.8592 7.8058,2.1086 5.9311,2.4924 3.899,2.9085 2.2056,4.6979 2.2919,7.5317 c 0.08,2.6558 1.6065,4.5217 3.407,6.3055 1.8004,1.7837 3.8929,3.5245 5.3004,5.9674 l 0.3023,0.52506 0.3022,-0.52494 c 1.402,-2.4334 3.5619,-4.0921 5.3996,-5.8388 1.8377,-1.7471 3.3665,-3.637 3.282,-6.4552 -0.079,-2.6616 -1.7385,-4.5173 -3.7242,-5.0347 -0.3724,-0.097 -0.7561,-0.14706 -1.1422,-0.14616 z m 0,0.69336 c 0.3268,0 0.652,0.0462 0.9683,0.12864 1.6875,0.43968 3.1325,1.9958 3.2039,4.3798 0.076,2.5601 -1.2672,4.2177 -3.0649,5.9267 -1.68,1.5967 -3.7439,3.1912 -5.2212,5.5 C 9.8391,16.6443 7.8446,14.9769 6.1925,13.3404 4.4241,11.5884 3.0652,9.9102 2.9921,7.5106 2.9161,4.9552 4.3398,3.5325 6.0734,3.1775 7.8073,2.82254 9.857,3.5786 10.9994,5.641 l 0.3175,0.57522 0.2986,-0.58572 c 0.9363,-1.8418 2.387,-2.6174 3.8035,-2.6074 z m -0.4634,0.78216 c -0.061,0 -0.1217,6e-4 -0.1784,0.006 -0.2265,0.018 -0.4008,0.0781 -0.5145,0.15552 -0.1138,0.0776 -0.1747,0.16404 -0.2054,0.29928 -0.059,0.27066 0.078,0.72636 0.455,1.1984 0.3753,0.47214 0.9586,0.9483 1.6405,1.2885 0.682,0.3402 1.3298,0.47394 1.7829,0.43728 C 18.162,7.1724 18.3353,7.1123 18.449,7.03488 18.5627,6.95728 18.6248,6.87084 18.6554,6.73554 18.7144,6.465 18.5764,6.01044 18.1993,5.53834 17.824,5.0662 17.2419,4.59004 16.56,4.24994 15.9634,3.95222 15.3926,3.81152 14.9557,3.80558 Z m -7.8403,6e-4 c -0.047,-6e-4 -0.096,0 -0.1401,0.006 -0.1769,0.0144 -0.3084,0.06 -0.3897,0.1146 -0.08,0.0546 -0.1197,0.1098 -0.141,0.20346 -0.041,0.18726 0.058,0.5391 0.3581,0.91194 0.2987,0.37278 0.7672,0.75324 1.3149,1.0243 0.5476,0.27096 1.0663,0.3756 1.4199,0.34716 C 9.7142,6.39908 9.8458,6.35248 9.9272,6.2978 10.0072,6.2432 10.0468,6.188 10.0683,6.09434 10.1093,5.90708 10.0103,5.55524 9.7101,5.1824 9.4115,4.80962 8.9428,4.43036 8.3953,4.1593 7.916,3.92224 7.459,3.81208 7.1154,3.8074 Z m 4.268,4.8639 c -2.0337,0 -3.8758,0.1668 -5.1874,0.43026 C 5.5402,9.232 5.0155,9.39046 4.6838,9.54808 4.5181,9.62558 4.4021,9.70744 4.3454,9.76324 c -0.026,0.0264 -0.037,0.0414 -0.042,0.0492 0.01,0.008 0.016,0.024 0.042,0.0504 0.055,0.054 0.1726,0.13506 0.3384,0.2139 0.3317,0.15768 0.8564,0.31596 1.5121,0.44778 1.3117,0.26346 3.1537,0.43152 5.1874,0.43152 2.0335,0 3.8756,-0.16806 5.1871,-0.43152 0.6558,-0.13182 1.1805,-0.2901 1.5123,-0.44778 0.1657,-0.0781 0.2817,-0.1584 0.3382,-0.2139 0.026,-0.0264 0.037,-0.042 0.042,-0.0504 -0.01,-0.007 -0.016,-0.0228 -0.042,-0.0492 C 18.3659,9.70864 18.2485,9.62686 18.0827,9.54808 17.7509,9.39046 17.2262,9.232 16.5704,9.10018 15.2589,8.83672 13.4168,8.66992 11.3833,8.66992 Z m 7.0809,1.1437 c 0.01,0.008 0.01,0.007 0.01,0 0,-0.007 0,-0.008 -0.01,0 z m -14.162,0 c -0.01,-0.008 0,-0.007 0,0 l 0,0 z m 13.611,1.0853 c -0.3434,0.11814 -0.7467,0.22176 -1.2074,0.31446 -1.3787,0.27702 -3.2524,0.44424 -5.3238,0.44424 -2.0716,0 -3.9465,-0.16722 -5.3251,-0.4443 -0.4289,-0.086 -0.8088,-0.1818 -1.1364,-0.29004 1.6352,2.1458 4.4598,3.9734 6.3727,6.9196 1.0819,-1.6425 2.4911,-2.8928 3.8001,-4.0548 1.0901,-0.9675 2.1023,-1.8779 2.8199,-2.8892 z"
       inkscape:connector-curvature="0" />
  </g>
</svg>
