<?xml version="1.0" encoding="UTF-8" standalone="no"?>
<svg id="svg8549" xmlns:rdf="http://www.w3.org/1999/02/22-rdf-syntax-ns#" xmlns="http://www.w3.org/2000/svg" height="6mm" viewBox="0 0 21.259853 21.259969" width="6mm" version="1.1" xmlns:cc="http://creativecommons.org/ns#" xmlns:dc="http://purl.org/dc/elements/1.1/">
 <g transform="matrix(1.1785 0 0 1.1785 -219.53 -324.43)">
  <path id="path6367-3-8-3" d="m195.64 275.28-0.1569 0.94932c-0.6748 0-1.3359 0.0776-1.9713 0.2355l-0.3542-0.93984-2.0675 0.77814 0.3717 0.98562c-0.5627 0.32209-1.0861 0.71071-1.5566 1.158l-0.8414-0.69036-1.4016 1.7063 0.8671 0.71142c-0.3202 0.54109-0.5802 1.1264-0.7687 1.7474l-1.1276-0.18636-0.3598 2.1787 1.1405 0.18852c-0.014 0.64596 0.048 1.2798 0.184 1.8918l-1.0841 0.40759 0.778 2.0673 1.0736-0.4041c0.3028 0.5634 0.6716 1.0892 1.0981 1.5656l-0.7113 0.86622 1.7078 1.4004 0.688-0.83797c0.5396 0.342 1.1265 0.62172 1.751 0.82999l-0.1701 1.0309 2.179 0.35988 0.163-0.98568c0.6766 0.0318 1.341-0.0198 1.9828-0.15102l0.3365 0.89166 2.0664-0.77802-0.3201-0.84979c0.6048-0.31284 1.1676-0.70038 1.6748-1.1542l0.6727 0.55224 1.4009-1.7076-0.645-0.52891c0.3653-0.57564 0.6606-1.2046 0.872-1.8761l0.8029 0.13236 0.3586-2.1784-0.7898-0.13014c0.022-0.70656-0.047-1.3993-0.2027-2.065l0.7441-0.2802-0.778-2.0673-0.7574 0.28483c-0.3334-0.60433-0.7433-1.1638-1.219-1.6642l0.5313-0.64692-1.7066-1.4017-0.5523 0.67266c-0.5773-0.34188-1.2048-0.61392-1.8728-0.8052l0.1488-0.90348-2.1789-0.35982zm-0.3011 1.7978c0.4178-0.006 0.8414 0.0258 1.2679 0.0961 3.9005 0.64369 6.5465 4.3355 5.9028 8.2353-0.6438 3.8996-4.3359 6.5458-8.2362 5.9018-3.8998-0.64368-6.5459-4.3357-5.9023-8.2352 0.5633-3.4124 3.4616-5.8648 6.7895-5.9934 0.058 0 0.1185-0.006 0.1783-0.006zm0.01 0.70081c-0.052 0-0.1082 0-0.1616 0.006-3.0062 0.11388-5.6136 2.322-6.1229 5.4075-0.5821 3.5257 1.7994 6.8481 5.3257 7.4299 3.5263 0.582 6.8474-1.7993 7.4298-5.3253 0.5818-3.526-1.7985-6.847-5.325-7.429-0.3855-0.0638-0.7684-0.0915-1.1459-0.0868zm0.015 0.68088c0.3375-0.006 0.6805 0.0204 1.0255 0.0775 3.154 0.5205 5.2827 3.4912 4.7621 6.6448-0.5208 3.1538-3.4905 5.2823-6.6445 4.7616-0.968-0.15942-1.8389-0.55032-2.5666-1.1062l4.1139-5.0112 1.9817 1.6267 2.192-2.6699-4.0589-3.3294-3.8197 1.3325 2.6629 2.1846-4.0425 4.9269c-1.0122-1.2403-1.5065-2.8924-1.2249-4.5987 0.4556-2.7596 2.7862-4.7338 5.4749-4.8356 0.047 0 0.096-0.006 0.1441-0.006z"/>
 </g>
</svg>
