<?xml version="1.0" encoding="UTF-8" standalone="no"?>
<svg id="svg8549" xmlns:rdf="http://www.w3.org/1999/02/22-rdf-syntax-ns#" xmlns="http://www.w3.org/2000/svg" height="6mm" viewBox="0 0 21.259853 21.259969" width="6mm" version="1.1" xmlns:cc="http://creativecommons.org/ns#" xmlns:dc="http://purl.org/dc/elements/1.1/">
 <g id="layer1-9" transform="matrix(1.1571 0 0 1.1571 -214.99 -318.56)">
  <path id="path11721-6-5" d="m191.63 275.46 3.4223 2.7303 2.9589 0.16308-0.039 0.7109-6.149-0.33935-4.5259-0.1869 8.6602 2.5922-7.5339 9.402-0.5536-0.67272-1.8754 3.6817 9.4759-7.7266 1.9741 0.44169-1.4776 1.5468-0.4894-0.41083-2.1826 3.2055 8.8256-5.3404-4.4521-1.2349 3.8187-3.1137c0.043 0.0175 0.088 0.0342 0.1334 0.0465 0.8887 0.23807 1.8962-0.64147 2.2504-1.9636 0.3543-1.322-0.079-2.5862-0.968-2.8244-0.8888-0.23814-1.8962 0.64022-2.2505 1.9623-0.056 0.20865-0.092 0.41601-0.1096 0.61803l-8.9126-3.2876z"/>
 </g>
</svg>
