<?xml version="1.0" encoding="UTF-8" standalone="no"?>
<svg id="svg8549" xmlns:rdf="http://www.w3.org/1999/02/22-rdf-syntax-ns#" xmlns="http://www.w3.org/2000/svg" height="6mm" viewBox="0 0 21.259853 21.259969" width="6mm" version="1.1" xmlns:cc="http://creativecommons.org/ns#" xmlns:dc="http://purl.org/dc/elements/1.1/">
 <g id="layer1-4" transform="matrix(1.1408 0 0 1.1408 -211.84 -314.16)">
  <path id="path4609-8-6" d="m193.26 275.55c-1.9835 0-3.7832 0.47261-5.1143 1.262-1.3311 0.78942-2.2195 1.9273-2.2195 3.2351 0 1.2936 0.8693 2.4226 2.1765 3.2111l-1.093 4.0942 3.7147-3.0798c0.791 0.17676 1.6444 0.27264 2.5356 0.27264 1.9833 0 3.7841-0.47267 5.1152-1.2621 1.331-0.78936 2.2194-1.9283 2.2194-3.2361s-0.8884-2.4457-2.2194-3.2351c-1.331-0.78935-3.1319-1.262-5.1151-1.262zm0 0.72077c1.8695 0 3.5574 0.45396 4.7512 1.162 1.194 0.70805 1.8676 1.6372 1.8676 2.6142 0 0.97727-0.6736 1.9076-1.8676 2.6155-1.1938 0.70799-2.8817 1.162-4.7512 1.162-1.8694 0-3.5577-0.45402-4.7516-1.162-1.1936-0.708-1.8661-1.6382-1.8661-2.6155 0-0.97722 0.6725-1.9063 1.8662-2.6142 1.1938-0.70799 2.882-1.162 4.7514-1.162zm-4.3971 1.9346v0.72078h3.5673v-0.72084h-3.5673zm4.2834 0v0.72078h1.076v-0.72084h-1.076zm1.792 0v0.72078h2.757v-0.72084h-2.757zm-6.0754 1.5391v0.72204h1.136v-0.72204h-1.136zm1.8521 0v0.72204h2.526v-0.72204h-2.526zm3.2428 0v0.72204h1.4594v-0.72204h-1.4595zm2.1754 0v0.72204h1.5623v-0.72204h-1.5623zm-7.2703 1.4246v0.72089h2.715v-0.72089h-2.715zm3.431 0v0.72089h2.1847v-0.72089h-2.1847zm2.9007 0v0.72089h2.5007v-0.72089h-2.5007zm3.5374 3.4808c-2.8686 0-5.1943 1.6107-5.1943 3.5979 0 1.9871 2.3258 3.5979 5.1943 3.5979 0.6983 0 1.3646-0.0954 1.9728-0.26873l2.6253 1.973-0.9528-2.7396c0.9556-0.65225 1.5489-1.5594 1.5489-2.5625 0-1.987-2.3257-3.5978-5.1942-3.5978zm-2.6947 1.6335h1.2606v0.72083h-1.2607v-0.72083zm1.9763 0h3.461v0.72083h-3.461v-0.72083zm-3.0251 1.6103h3.0001v0.72084h-3v-0.72084zm3.7159 0h0.8032v0.72084h-0.8033l0.0001-0.72084zm1.5193 0h1.9537v0.72084h-1.9537v-0.72084zm-4.1863 1.504h3.0285v0.72078h-3.0286v-0.72078zm3.7445 0h1.6927v0.72078h-1.6927v-0.72078z"/>
 </g>
</svg>
