<?xml version="1.0" encoding="UTF-8" standalone="no"?>
<svg id="svg8549" xmlns:rdf="http://www.w3.org/1999/02/22-rdf-syntax-ns#" xmlns="http://www.w3.org/2000/svg" height="6mm" viewBox="0 0 21.259853 21.259969" width="6mm" version="1.1" xmlns:cc="http://creativecommons.org/ns#" xmlns:dc="http://purl.org/dc/elements/1.1/">
 <g id="layer1" transform="matrix(1.1405 0 0 1.1405 -211.68 -313.74)">
  <path id="path9618-1-3" d="m194.98 275.42c13.792 10.623 0.6605 15.689-3.4318 11.252l-1.5914 1.4246 1.9844 1.9319c8.4962 6.9586 20.492-9.6715 3.0388-14.608zm-5.7334 13.012c-0.2157 0.0396-0.3504 0.11323-0.4418 0.20142-0.075 0.0716-0.127 0.17454-0.1659 0.29004l2.155 2.0277c0.2136-0.0373 0.3619-0.10745 0.4406-0.17988 0.076-0.0698 0.1208-0.14826 0.1208-0.28907l-2.1087-2.0502zm-0.9655 1.1629-2.1721 1.9451c-0.6537 1.0359 0.5739 2.3482 1.9952 1.7134l2.0125-1.9291-1.8356-1.7294z"/>
 </g>
</svg>
