<?xml version="1.0" encoding="UTF-8" standalone="no"?>
<svg id="svg8549" xmlns:rdf="http://www.w3.org/1999/02/22-rdf-syntax-ns#" xmlns="http://www.w3.org/2000/svg" height="6mm" viewBox="0 0 21.259853 21.259969" width="6mm" version="1.1" xmlns:cc="http://creativecommons.org/ns#" xmlns:dc="http://purl.org/dc/elements/1.1/">
 <g id="layer1" transform="matrix(1.1731 0 0 1.1731 -218.05 -323.59)">
  <path id="path11705-6-5-7" d="m203.93 277.84-3.1376 2.9016 2.9225 5.0337 0.1366-0.16633 0.078-7.769zm-17.914-0.13793-0.086 8.5012c0.1684 0.0244 0.3704 0.0392 0.5757 0.0418 0.4463 0.01 0.8149-0.0161 1.0218-0.0328l2.0321-4.9941-3.5436-3.5161zm14.605 4.094-0.2666 0.16878c-0.01 0.006-0.2029 0.12355-0.261 0.15882l-0.4013 0.23765 0.01 0.006c-0.1858 0.11327-0.2378 0.145-0.4492 0.27324-0.1047 0.0657-0.1088 0.0668-0.2111 0.12837-0.7595-0.41819-1.5848-0.74206-2.5493-0.99989-1.2198 0.35504-2.5132 0.87371-3.8046 1.3596 0.5277 0.64851 1.1188 0.86374 1.7165 0.8773 0.6934 0.0161 1.4048-0.27864 1.8961-0.61151l0.2807-0.18979 0.2753 0.40656 4.3135 3.1798 1.7088-1.1114-2.2532-3.8809zm-10.564 0-1.7511 4.3028 0.6222 0.4879 1.172-1.3018 0.092-0.10485 0.14-0.006c0.055-0.006 0.1119-0.006 0.1667 0 0.3842 0.006 0.7265 0.1118 0.9826 0.33872 0.1893 0.17006 0.3137 0.39564 0.3849 0.65571l0.085-0.006c0.4515-0.0238 0.8573 0.0738 1.1496 0.33563 0.292 0.26284 0.4309 0.65642 0.4547 1.108v0.0392c0.2418 0.0488 0.458 0.14507 0.6326 0.30351 0.292 0.26283 0.431 0.6559 0.4546 1.1079l0.01 0.11706c0.023 0.008 0.046 0.0161 0.069 0.0251l0.076-0.10697 0.2087-0.28681 0.1055-0.14822 0.2739 0.19937 2.2206 1.6158c0.2436-0.0578 0.3897-0.14944 0.4715-0.26175 0.081-0.1132 0.1233-0.2805 0.1052-0.52985l-2.6624-1.9475-0.2735-0.20001 0.1982-0.27067 0.2544-0.34977 0.274 0.19911 3.0015 2.1842c0.2438-0.0578 0.39-0.14938 0.4718-0.26175 0.08-0.11275 0.123-0.27967 0.1052-0.52888l-3.4526-2.5017-0.2743-0.19891 0.3977-0.54848 0.2743 0.19878 3.4529 2.5023c0.2441-0.0572 0.3904-0.14938 0.4721-0.26188 0.081-0.11282 0.1232-0.28031 0.105-0.53043l-4.1258-3.0412c-0.5549 0.32143-1.263 0.57604-2.0214 0.55895-0.8876-0.0199-1.8323-0.45481-2.5204-1.5329a0.33872 0.33872 0 0 1 0.1675 -0.50004c0.4916-0.18112 0.9886-0.3727 1.4865-0.56281l-3.4616-0.29207zm0.4445 4.0552-1.8105 2.0107c0.033 0.25403 0.1107 0.41298 0.2168 0.50865 0.1065 0.0937 0.2726 0.15438 0.5284 0.16152l1.8105-2.0107c-0.032-0.25442-0.1101-0.4133-0.2163-0.50871-0.107-0.0939-0.2728-0.15535-0.5289-0.16152zm1.6204 0.98762-2.0446 2.2708c0.032 0.25397 0.1102 0.41299 0.2161 0.50871 0.1072 0.0938 0.2733 0.15426 0.529 0.16146l2.0446-2.2707c-0.032-0.25448-0.1107-0.41311-0.2168-0.5089-0.1065-0.0937-0.2726-0.1542-0.5283-0.16146zm1.0895 1.4521-1.8104 2.0107c0.033 0.2541 0.1102 0.41299 0.2167 0.50891 0.1066 0.0937 0.2727 0.15419 0.5284 0.16139l1.8105-2.0105c-0.033-0.25468-0.1103-0.41311-0.2168-0.50897-0.1065-0.0937-0.2725-0.15471-0.5284-0.16146zm0.9147 1.4823-1.4768 1.6515c0.033 0.255 0.1101 0.41363 0.2167 0.50955 0.1065 0.0937 0.2724 0.15432 0.5278 0.16139l1.4769-1.6514c-0.032-0.255-0.1102-0.41356-0.2168-0.50955-0.1065-0.0937-0.2723-0.15432-0.5278-0.16132zm1.3284 0.1937c0.062 0.17456 0.097 0.36769 0.1074 0.5729l0.01 0.13884-0.3151 0.3524 0.9983 0.72677c0.244-0.0572 0.3896-0.14938 0.4716-0.26207 0.08-0.11269 0.1231-0.27999 0.1052-0.52882l-1.3741-1.0001z" fill-rule="evenodd" stroke-linecap="square" />
 </g>
</svg>
