<?xml version="1.0" encoding="UTF-8" standalone="no"?>
<svg id="svg8549" xmlns:rdf="http://www.w3.org/1999/02/22-rdf-syntax-ns#" xmlns="http://www.w3.org/2000/svg" height="6mm" viewBox="0 0 21.259853 21.259969" width="6mm" version="1.1" xmlns:cc="http://creativecommons.org/ns#" xmlns:dc="http://purl.org/dc/elements/1.1/">
 <g id="layer1-5" transform="matrix(1.1652 0 0 1.1652 -216.65 -320.85)">
  <path id="path10855-0-7" d="m186.06 275.55c2.2708 4.2828 5.4354 7.7177 8.8593 11.164l0.1383 0.14302c0.8325 0.8364 1.6797 1.6753 2.5327 2.5268-0.7192 0.565-1.4865 1.0756-2.2861 1.5375l1.0882 1.0882 2.6209-2.6209c1.6148 1.054 2.9096 2.4275 3.9702 4.0356l1.0704-1.0702c-1.6199-1.0486-3.0414-2.2962-4.0441-3.9618l2.6293-2.6293-1.0882-1.0881c-0.4239 0.83346-0.9311 1.6024-1.5054 2.311-1.6725-1.6705-3.2976-3.274-4.9629-4.7854-0.01-0.008-0.017-0.0162-0.025-0.024-2.7497-2.4933-5.6144-4.7375-8.9999-6.6244zm17.998 0c-3.1671 1.7651-5.8783 3.8438-8.466 6.1465l0.8701 0.82236 2.1668-2.1668 0.5042 0.50297-2.1526 2.1527 0.9381 0.88428c2.3571-2.5523 4.4852-5.2221 6.1394-8.342zm-12.568 4.8021 7.6494 7.6483c-0.1663 0.16941-0.3371 0.33535-0.5113 0.49703l-7.6423-7.6424 0.5042-0.50297zm-2.925 4.3206-1.0869 1.0882 2.6281 2.6281c-1.0027 1.6657-2.4231 2.9144-4.0429 3.963l1.0704 1.0702c1.0605-1.6081 2.3554-2.9816 3.9701-4.0356l2.6209 2.6208 1.0882-1.0881c-0.7995-0.46199-1.5668-0.97258-2.286-1.5376 0.6814-0.68 1.3581-1.3514 2.0274-2.0203l-0.9475-0.97846-2.1157 2.1155c-0.1741-0.16162-0.3438-0.32876-0.5101-0.49817l2.13-2.1299-0.9356-0.96778c-0.6972 0.68102-1.3961 1.3753-2.1038 2.0822-0.5746-0.70892-1.0824-1.4782-1.5065-2.3122z"/>
 </g>
</svg>
