<?xml version="1.0" encoding="UTF-8" standalone="no"?>
<svg id="svg8549" xmlns:rdf="http://www.w3.org/1999/02/22-rdf-syntax-ns#" xmlns="http://www.w3.org/2000/svg" height="6mm" viewBox="0 0 21.259853 21.259969" width="6mm" version="1.1" xmlns:cc="http://creativecommons.org/ns#" xmlns:dc="http://purl.org/dc/elements/1.1/">
 <g id="layer1" transform="matrix(1.1866 0 0 1.1866 -221.51 -326.7)">
  <path id="path10584-5-0" d="m195.57 275.63c-2.9671 0-8.4393 5.6814-6.2597 10.964 0.2911 0.92129 1.0163 1.8359 1.7945 2.8104 0.8916 1.117 1.8817 2.3057 2.5038 3.5327h0.7507c-0.6614-1.4511-1.7707-2.7659-2.722-3.9579-0.9998-1.2521-1.7799-2.3799-1.7799-3.2069 0-0.13164 0.013-0.26753 0.038-0.4062h-0.01c0.01-0.0438 0.021-0.0892 0.032-0.13385 0.032-0.13698 0.076-0.27642 0.1341-0.41718 0.8413-2.2388 3.4334-3.876 5.3436-4.923l0.1311-0.0717 0.1426 0.0492c2.2217 0.76212 4.7877 2.4342 5.687 4.9506 0.04 0.10986 0.075 0.21918 0.1065 0.32808 0.014 0.0498 0.029 0.1032 0.042 0.15569h-0.01c0.039 0.18763 0.059 0.37278 0.059 0.55314v0.00006c0 0.81348-0.8917 1.9505-2.0071 3.1913-1.0597 1.1781-2.2721 2.4633-2.9169 3.8883h0.7507c0.6111-1.1716 1.6848-2.3342 2.6728-3.4329 0.844-0.93833 1.6515-1.8232 2.0007-2.7327 1.9269-4.5226-3.618-11.141-6.5001-11.141zm0.028 4.9342c-1.4104 0.78402-3.1007 1.9042-4.143 3.2166 0.3543 3.0267 2.1512 5.3296 4.3141 5.3296 2.1556 0 3.9468-2.2874 4.3095-5.2992-1.0546-1.5348-2.8458-2.6584-4.4806-3.2469zm-2.1238 3.0276c0.029-0.00042 0.058-0.00019 0.089 0 0.4748 0.006 0.9497 0.098 1.4245 0.27144-0.6143 1.4804-2.1507 1.5301-2.8487 0 0.4451-0.1764 0.8905-0.2643 1.3355-0.27144zm4.5544 0c0.4747-0.006 0.9496 0.0831 1.4245 0.27144-0.6984 1.5301-2.2345 1.4804-2.8489 0 0.4747-0.17341 0.9495-0.26778 1.4243-0.27144z"/>
 </g>
</svg>
