<?xml version="1.0" encoding="UTF-8" standalone="no"?>
<svg id="svg59431" xmlns:rdf="http://www.w3.org/1999/02/22-rdf-syntax-ns#" xmlns="http://www.w3.org/2000/svg" height="4.2532mm" width="2.6006mm" version="1.1" xmlns:cc="http://creativecommons.org/ns#" xmlns:dc="http://purl.org/dc/elements/1.1/" viewBox="0 0 9.2146999 15.070401">
 <g id="layer1" transform="translate(-541.93 -391.52)">
  <path id="path5470" d="m541.93 391.52v0.30024c0 3.2763 1.2262 6.0944 3.096 7.137v0.19581c-1.8698 1.0426-3.096 3.8607-3.096 7.1371v0.30027h9.2146v-0.30027c0-3.2955-1.2469-6.1145-3.1341-7.1401v-0.18979c1.887-1.0256 3.1341-3.8447 3.1341-7.1401v-0.30021h-9.2147zm0.6085 0.60046h7.9977c-0.08 3.0993-1.3735 5.6405-2.9545 6.3919l-0.1717 0.0814v0.92392l0.1717 0.0813c1.5809 0.7514 2.8748 3.2919 2.9545 6.3909h-7.9977c0.079-3.0817 1.3537-5.6262 2.9204-6.3929l0.1686-0.0824v-0.9189l-0.1686-0.0824c-1.5666-0.76672-2.8415-3.3112-2.9204-6.3929zm6.8659 2.7676c-1.8512 0.89367-4.0017 0.89463-5.706 0.13158 0.4709 1.6358 1.408 2.8002 2.5107 2.9926-0.049 0.0658-0.079 0.14734-0.079 0.23601 0 0.21722 0.1763 0.39363 0.3936 0.39363s0.3937-0.17641 0.3937-0.39363c0-0.0874-0.029-0.16769-0.077-0.233 1.1385-0.18895 2.1045-1.4162 2.5649-3.1272zm-2.8811 4.2369c-0.2173 0-0.3937 0.17635-0.3937 0.39366 0 0.21729 0.1764 0.39365 0.3937 0.39365s0.3936-0.17636 0.3936-0.39365c0-0.21731-0.1763-0.39366-0.3936-0.39366zm0 1.2623c-0.2173 0-0.3937 0.17644-0.3937 0.39367 0 0.21734 0.1764 0.39365 0.3937 0.39365s0.3936-0.17631 0.3936-0.39365c0-0.21723-0.1763-0.39367-0.3936-0.39367zm0 1.2704c-0.2173 0-0.3937 0.17636-0.3937 0.39366 0 0.21724 0.1764 0.39365 0.3937 0.39365s0.3936-0.17641 0.3936-0.39365c0-0.2173-0.1763-0.39366-0.3936-0.39366zm0.01 1.2824c-0.7459 0.01-1.4844 0.82813-2.4363 2.4312h4.9167c-0.9808-1.639-1.7346-2.4402-2.4804-2.4312z"/>
 </g>
</svg>
