<?xml version="1.0" encoding="UTF-8" standalone="no"?>
<svg id="svg7965" xmlns:rdf="http://www.w3.org/1999/02/22-rdf-syntax-ns#" xmlns="http://www.w3.org/2000/svg" height="3.3113mm" width="2.518mm" version="1.1" xmlns:cc="http://creativecommons.org/ns#" xmlns:dc="http://purl.org/dc/elements/1.1/" viewBox="0 0 8.9221187 11.732837">
 <g id="layer1" transform="translate(-9.7195 -9.9315)">
  <path id="path10638" d="m13.772 10.101-3.8828 3.8828c-0.22586 0.22587-0.2258 0.59194 0 0.81775l1.0903 1.0903c0.22581 0.2258 0.59189 0.22585 0.81775 0l1.0343-1.0343-0.00007 6.2288c0 0.1533 0.0609 0.30044 0.16932 0.40887 0.10844 0.10844 0.25558 0.16933 0.40888 0.16933h1.542c0.15973 0 0.30426-0.0647 0.40892-0.16938 0.10462-0.10461 0.16933-0.24924 0.16939-0.40892l0.00007-6.2288 1.0344 1.0344c0.2258 0.2258 0.59188 0.22586 0.81774 0l1.0903-1.0903c0.22586-0.22586 0.22581-0.59193 0-0.81774l-3.8828-3.8828c-0.22586-0.22574-0.59199-0.22574-0.81779 0.00006z"/>
 </g>
</svg>
