<?xml version="1.0" encoding="UTF-8" standalone="no"?>
<svg id="svg20112" xmlns:rdf="http://www.w3.org/1999/02/22-rdf-syntax-ns#" xmlns="http://www.w3.org/2000/svg" height="26.055mm" width="28.09mm" version="1.1" xmlns:cc="http://creativecommons.org/ns#" xmlns:dc="http://purl.org/dc/elements/1.1/" viewBox="0 0 99.532936 92.3204">
 <g id="layer1" transform="translate(-11.372 -31.758)">
  <path id="path6" d="m66.765 31.758-27.696 27.696h-27.696v36.928h27.696l27.696 27.696v-92.32zm14.846 7.9823-1.3444 5.0162c15.021 4.0246 25.446 17.61 25.446 33.162 0 15.551-10.425 29.137-25.446 33.162l1.3444 5.0162c17.267-4.6267 29.294-20.302 29.294-38.178s-12.028-33.551-29.294-38.178zm-3.5846 13.376-1.3438 5.0162c8.9675 2.4026 15.182 10.502 15.182 19.785 0 9.2834-6.2143 17.383-15.182 19.785l1.3438 5.0162c11.213-3.005 19.031-13.193 19.031-24.802s-7.8178-21.797-19.031-24.802zm-3.5843 13.376-1.3436 5.0162c2.9127 0.78098 4.9178 3.3939 4.9178 6.4096s-2.0051 5.6287-4.9181 6.4096l1.3438 5.0162c5.1596-1.3825 8.7676-6.0845 8.7676-11.426 0-5.341-3.608-10.043-8.7676-11.426z"/>
 </g>
</svg>
